<?xml version="1.0" encoding="utf-8"?>
<!-- Generator: Adobe Illustrator 21.0.0, SVG Export Plug-In . SVG Version: 6.00 Build 0)  -->
<svg version="1.1" id="Layer_1" xmlns="http://www.w3.org/2000/svg" xmlns:xlink="http://www.w3.org/1999/xlink" x="0px" y="0px"
	 viewBox="0 0 595.3 841.9" style="enable-background:new 0 0 595.3 841.9;" xml:space="preserve">
<style type="text/css">
	.st0{fill:#FFFFFF;}
</style>
<g id="PjOyBu.tif">
	<g>
		<path class="st0" d="M331.1,714.2c-73.1,0-146.3,0-219.4,0c0-230.3,0-460.6,0-690.9c150,0,300.1,0,450.1,0
			c0,230.3,0,460.6,0,690.9c-74.6,0-149.3,0-223.9,0c13.5-1.6,23.1-10.7,33.6-17.9c6.5-4.5,12.3-9.9,18.8-14.2
			c6.4-4.3,9.9-10.2,12.9-17c6.2-14.1,11.8-28.6,23.1-39.9c7.1-7.1,13.4-15.1,20.9-21.7c20.2-17.9,40-36.1,53-60.3
			c9.5-17.7,19.2-35.5,21.8-55.9c0.2-1.3-1-2.7-1.6-4.1c-1.2,0.8-2.4,1.6-3.6,2.4c-0.1,0.1-0.1,0.3-0.2,0.5
			c-2.2,5.9-6.3,9.4-12.6,10.5c-1,0.2-2.1,1.9-2.4,3.2c-0.1,0.5,1.5,2.2,2.4,2.2c3.3,0.1,3.6,2.3,3.4,4.6c-0.2,2.5-0.8,4.9-1.2,7.3
			c-0.3-0.1-0.6-0.1-0.9-0.2c-0.8-2.3-1.5-4.7-2.3-7c-0.4,0.1-0.8,0.2-1.3,0.2c0,3.8,1.4,7.9-3,11.6c-1.4-4-2.6-7.6-4-11.7
			c-1.8,1.4-3.1,2.4-4.5,3.5c0.5,0.1,0.9,0.1,1.4,0.2c0.8,3.1,3,6.8,2.1,9.3c-0.9,2.6-4.9,4.1-7.7,6.2c0.5,0.4,1.3,0.9,1.8,1.6
			c0.6,0.8,1.1,1.8,1.9,3c-1.2,0.2-1.9,0.4-2.6,0.5c-0.7,0.1-1.4,0.2-2.2,0.2c2.7,5.3,2.6,5.5-3,7.8c-0.9-1.2-1.9-2.4-3.3-4.2
			c-2,1.8-3.6,3.4-5.3,4.9c1.1,1.4,1.7,2.2,2.9,3.7c-2.3-0.4-3.5-0.7-4.7-0.9c-3.2,4.2-7.6,7.8-4.5,13.3c-1.9,1.5-4.2,2.4-4.9,3.9
			c-2.1,5-8.3,7-9,13c-0.1,0.8-1.7,1.3-2.6,2.1c-1.4,1.2-2.7,2.6-4.1,3.8c-1.6,1.3-3.5,2.4-5,3.8c-3.3,3.2-10.7,1.5-9.9,9.1
			c-2.2-0.9-3.8-1.5-5.4-2.1c-2.1,3.3-3.9,6.3-5.8,9.2c-1.1,1.7-2.3,3.3-3.4,5c-2.3,3.6-4.2,7.5-6.8,10.8c-1.1,1.4-3.4,1.9-5.3,2.5
			c-1.1,0.4-2.4,0.3-3.6,0.4c0.4,2.2,0.7,3.9,1,5.7c-11.8,0.9-11.8,0.9-13.4,9c-4,1.9-4.6-2.8-6.7-3.6c-4.1,1.4-7.8,2.6-11.5,3.9
			c-0.8-1.8-1.4-3.2-2.2-4.8c-4.9,1.7-9.8,3-14.2-0.1c-4.6-3.3-9.6-3.1-14.4-1.9c-8.9,2-17.4,2.2-25.8-3.3c1.6-1,3-1.9,4.4-2.7
			c0-0.4,0-0.9,0-1.3c-5.3-0.8-10.7-1.5-16.3-2.3c0.1-4-1.7-6-6.2-4.6c-0.7,0.2-2-0.2-2.5-0.8c-3.7-4-8.3-7.5-8.8-13.1
			c-2.2-1.4-4.2-2.8-6.2-4c-1.9-1.2-2.8-2.5-2.6-5c0.3-2.7-0.3-5.5-0.6-8.6c-4.1,1.7-7.2,3-9.5,3.9c-1.2-2.6-1.9-4.1-2.7-5.6
			c-1.7,0.9-3.3,1.8-5.2,2.8c-9.8-5.7-11.4-8.2-8.3-12c-2.3-1.7-5.6-2.9-6.6-5.1c-1.5-3.2-3.2-5.1-7.7-5.4c2-2.4,3.2-4,4.4-5.4
			c-3.1-0.8-6.2-1.5-9-2.2c-1.3,2.2-2.6,4.3-3.8,6.3c-0.5-0.1-0.9-0.3-1.4-0.4c-0.2-1.8-0.4-3.6-0.5-5.4c-0.2-2.4,0.4-5.4-0.8-7.1
			c-2-2.9-3.1-5.3-1.4-8.7c0.3-0.6-0.9-1.9-1.4-2.9c-0.5,0.1-1,0.1-1.5,0.2c0.1,2.9,1.1,6.2-2.7,6.8c-7.4-3.9-2.5-8.7-0.2-14.2
			c-3.5,2.1-5.9,4.2-8.5,4.9c-1.9,0.5-5.4,0-6.3-1.3c-1.7-2.3-2-5.7-2.9-8.9c2.5-0.2,4.1-0.4,6.5-0.6c-0.6-2.3-1.1-4.1-1.4-5.6
			c-2.7-0.5-4.8-1-7-1.4c-0.5,1-1.3,2.3-2.4,4.3c-3.8-4.5-7.6-5.2-10.4-1.9c-4.8-2.8-9-5.2-13.8-8c-0.6,5.1,6,7,3.5,11.6
			c3.7,9.9,7.2,20,11.3,29.7c4.7,11.2,10,22.1,15,33.2c0.3,0.8,0.6,2,0.2,2.6c-1.8,2.6,0.1,4.3,1.5,5.9c5.3,6.3,10.7,12.5,16.1,18.7
			c16.2,18.2,31.9,36.8,50.1,53c13.8,12.3,28.4,23.8,42.5,35.7C317.9,702.7,324.5,708.5,331.1,714.2z M352.9,26
			c-2.3-0.5-3.5-1.1-4.8-1.1c-7.1,0.2-14.2,0.2-21.3,0.9c-8.2,0.8-16.5,1.5-24.4,3.7C290,33,278,37.7,265.6,41.4
			c-13.4,4-24.3,12.4-35.7,19.8c-4.5,2.9-9,6.2-12.3,11c-4,5.7-9.3,10.5-14.2,15.6c-10.1,10.6-19.4,21.4-25.7,35
			c-18.8,41.1-30.9,83.9-34.2,129c-0.4,6.1-0.7,12.2,3.4,18.3c-0.7-6,4.9-4.5,6.6-7.3c2.1,4.4,4.1,8.4,6,12.5
			c0.4-0.1,0.7-0.2,1.1-0.3c0.3-1.8,0.7-3.5,0.9-5c0,4.4,0,8.9,0,13.4c-0.3,0.1-0.6,0.2-1,0.2c-1-1.4-2-2.7-3.4-4.7
			c-0.4,1.7-0.9,2.7-0.8,3.7c0.4,3.9,0.7,7.5-0.3,11.5c-1.1,4.3,1,8.6,4.9,12.8c1.4-2.2,3-3.7,3.4-5.4c1-4.9,1.5-9.9,2.3-14.9
			c0.8-5.1-2.6-11.3,4.1-14.7c0.7-6.4,1.3-12.8,1.9-19.2c0-0.5-0.6-1.1-0.6-1.6c0.3-6.8-2.6-13.6,1.3-20.3c1.7-2.9,3.2-6.9-0.2-10.4
			c-0.5-0.5,0.6-2.5,1.1-3.8c0.9-2.3,1.9-4.5,3.2-7.3c-2.9,0-4.4,0-6.6,0c0.4-2.6,0.5-5.1,1.1-7.3c0.4-1.5,1.4-3.3,2.7-3.9
			c4.1-2.1,8.5-3.7,12.6-5.6c2.3-1.1,4.2-2.7,3.7-5.7c-0.8-4,1.2-6.2,4.2-8.4c4.5-3.3,4.8-5.4,1.8-9.9c-0.9-1.4-3-2-5.1-3.2
			c2.7-2.4,5.3-4.5,7.6-6.9c1.4-1.5,2.5-3.4,3.6-5.2c0.7-1.2,0.9-2.8,1.7-3.9c3.1-4.4,6.4-8.7,9.6-13c4-5.3,7.8-10.7,12.1-15.8
			c3.5-4.1,7.6-7.7,11.4-11.5c4.1-4.1,7.9-8.5,12.4-12.1c3.5-2.9,8.1-4.5,11.5-7.5c6.8-5.9,14.5-8.4,23.3-7.7
			c3.6,0.3,7.2,1.3,10.8,2.1c3.6,0.8,7.2,1.7,10.8,2.6c2.3,0.6,4.5,1.7,6.8,1.9c8.5,0.7,17,1.1,25.5,1.6c9.9,0.6,19.7,1.3,29.6,1.9
			c5.5,0.3,11.1,4.4,16.4-0.7c0.2-0.2,0.7,0,1.1,0.1c4.3,1.1,8.7,2.1,13,3.2c1.1,0.3,2.1,0.9,3.1,1c6.5,0.7,13,1,19.4,1.9
			c5.2,0.7,10.2,2.1,15.3,3.2c6.6,1.4,11.7-0.7,15.1-7c-0.9-0.5-1.6-1.1-2.4-1.5c-2.9-1.7-6.6-2.7-8.5-5.1c-3.3-4.1-7.1-7.3-11-10.7
			c-3.5-3.1-7-3.9-11.1-4.8c-7.9-1.8-15.9-3.1-23-8.2c-3.1-2.3-6.8-5.6-12.1-4.7c-3,0.5-6.9-0.8-9.7-2.4c-3.3-1.8-6-4.3-10.2-3.9
			c-1.2,0.1-2.5-1.3-4.4-2.3c1.6-0.7,2.7-1.7,3.5-1.5c6.3,1.8,12.5,3.8,18.8,5.7c2.9,0.9,5.8,1.7,9.2,2.7c-0.2-2.3-0.3-3.5-0.5-5.4
			c5.1,6.1,5.4,5.7,12.3,7c7.7,1.4,15.9,1.8,22.4,7.6c2.4,2.1,6.4,3.6,11,1.9c-2.1-3.1-4.2-5.1-7.6-5.8c-2.7-0.6-5.3-1.6-6.1-4.9
			c-0.6-2.4-2.7-2.5-5-2.4c-2.5,0.2-5.2,0.1-7.5-0.7c-7.8-3-15.4-6.6-23.3-9.6c-3.6-1.4-7.5-1.8-9.2-6c5.6-0.8,5.6-0.8,6.6-3.3
			c-1.5-0.1-4.5-0.2-4.5-0.3c-0.1-3.8-3.2-2.5-5-2.9c-2.9-0.7-6.2-0.3-8.8-1.6c-5.4-2.7-10.3-1.8-15.4,0.5c-1.5,0.7-3.7,0.1-5.6,0.1
			c-0.1-0.5-0.3-1.1-0.4-1.6C347.1,28.5,349.5,27.5,352.9,26z M353,415.9c1.1-5.8-2.4-9.8-8.4-8.6c-6.3,1.3-12.1,3.6-16.6,9.3
			c-3.4,4.3-8.5,7.9-13.3,10.4c-5.6,2.9-9.4,7.3-12.9,11.8c-2.7,3.4-3.5,8.4-0.7,13c-0.1-5.7,3.1-9,8-11.4c0.9,1,1.9,2,2.2,2.4
			c-1,3.3-2,5.8-2.4,8.4c-0.8,4.3,0.5,6.1,4.9,6.2c6.1,0.1,9.9,3.4,13.5,7.8c5.4,6.5,11.4,12.1,20.6,13.3c4.1,0.5,9.2,2,11.6,4.8
			c2.8,3.2,5.9,3.6,9.1,4.2c5.9,1,11.8,1.6,17.7,2.2c7.2,0.7,14.1-0.1,20.4-4.3c2.1-1.4,4.8-2.1,7.4-2.5c2.8-0.5,3.6,1,2.5,3.7
			c-1.8,4.1-4.5,7.3-8.7,9c-2.4,1-3.2,2.3-0.9,4.4c2.1-1.4,3.7-3,5.7-3.8c4.1-1.7,6.5-5,8.2-8.7c4.6-9.5,10.9-16.7,21.9-18.7
			c4.5-0.8,5.7-5.1,5.8-8.6c0.1-2.4-2.2-5.2-4.1-7.3c-1.3-1.4-3.7-0.6-3.6,1.5c0.1,2.6-1.6,3-3.1,4c-1.8,1.3-3.7,2.7-4.9,4.5
			c-2.1,3.3-5.3,4.1-8.7,4.2c-2.4,0.1-4.8-0.4-7.3-0.7c-7.6-0.9-15-2.2-22.9-1.3c-5.8,0.7-11.8-0.9-17.7-1.9c-5.1-0.9-10-2.8-15-3.6
			c-9.8-1.5-19.7-2.5-29.5-3.9c-2.5-0.4-4.8-1.6-7.3-2.5c0.6-2.2,1-3.7,1.5-5.7c-1.6-0.2-2.9-0.2-4-0.6c-1.9-0.6-3.8-1.2-5.4-2.2
			c-0.7-0.4-1.3-2-1-2.8c0.2-0.7,1.6-1.2,2.5-1.6c1.6-0.8,3.4-1.2,4.9-2.1c5.1-3.3,8-8.2,10.2-13.7c2.1-5.4,6.6-8.8,11.6-10.8
			C347,412.8,350.3,415.1,353,415.9z M377.8,550.7c-2.9,2.9-4.9,2.6-6.1-1.1c-0.3-0.9,0-2.1-0.5-2.7c-1.8-2.2-3.4-5.2-5.8-6.1
			c-4.1-1.5-5.7-2.5-5.8-6.6c0-1.3-0.4-2.6-0.7-4.7c-3.4,2.5-5.9,4.3-9.3,6.7c2.1,0.6,3.1,0.6,3.7,1.1c1.1,0.7,2.6,1.5,3,2.7
			c0.3,0.9-0.6,2.9-1.4,3.2c-1.1,0.4-2.9-0.1-3.9-0.8c-3-2.3-4.3-5.4-3.9-9.3c0.3-3.8,1-8.1-4.4-8.8c-0.1-3-0.3-5.6-0.4-8.6
			c-2,3.8-3.9,6.8-5.2,10c-0.7,1.7-1.3,5.2-0.5,5.6c3.5,2.2,2.4,7.7,7,8.9c0.8,0.2,1.7,2.6,1.5,3.7c-0.2,1-2,2.3-3.1,2.2
			c-5.4-0.2-7.7,4.2-10.9,7.1c-0.6,0.5-0.6,2.2-0.2,3c1.3,2.6,0.9,4.8-0.4,7.4c-1.3,2.6-1.4,4.9,2.6,6.4c3.4,1.2,6,4.4,9.1,6.9
			c0.5-1.2,1-2.4,1.5-3.6c1.1,2,1.2,3.8,1.6,5.5c0.3,1.3,1,3.6,1.7,3.7c4,0.5,8,2.7,11.5,2.7c5.4,0,10.7-2.7,16.1-4.2
			c4.6-1.3,9.2-3.8,13.3,0.2c2.4-1.1,4.3-2.5,6.4-2.8c2.8-0.4,4.3-1.7,5.4-4.2c0.6-1.3,1.3-3.1,2.5-3.7c4.8-2.5,6.1-6.6,6.2-10.5
			c-4.5-4.8-8.6-9.2-12.7-13.5C388.2,551.8,383.7,554.4,377.8,550.7z M379.1,441.7c1.7,6.2,2.9,6.7,7.3,4.1c1.5-0.9,3.3-1.3,4.9-1.9
			c0.6,2,1.3,4.1,1.8,6.1c0.2,0.7-0.1,1.4-0.1,2.4c1.1,0.2,2,0.5,2.9,0.4c5.1-0.5,10.6,0.7,13.3-5.9c1.4-3.4,4.7-6,6.8-9.1
			c2.1-3.1,3.8-6.5,8-7.3c1-0.2,2.1-0.8,2.9-1.6c0.8-0.9,2-2.4,1.7-3.2c-0.5-1.2-2-2.6-3.1-2.7c-2.7-0.1-5.5,0.6-8.2,0.9
			c-2,0.2-4.5,1.2-5.9,0.3c-3.4-2-6.6-1.4-9.8-0.3c-8,2.7-13.3-3.5-20.4-5.2c-7.8,3.8-16.5,0.9-26.1,1.2c1.8,3.2,2.9,6,4.6,8.3
			c2,2.9,5.3,5.1,6.6,8.2c1.3,3,0.8,6.8,1.2,11.2C371.3,445.6,375,443.7,379.1,441.7z M372,335.8c-2.4-0.5-4.9-0.8-7.3-1.6
			c-3.1-1-6.1-3.4-9.2-3.6c-8-0.5-16,0.1-24-0.3c-12.2-0.6-23.8,2-35.5,4.8c-5.9,1.4-8.2,5.8-6.3,12c2.2,0,4.4,0.2,6.6-0.1
			c2.2-0.3,4.3-1.1,6.4-1.5c3.6-0.7,7.7,2.8,11-1.1c0.1-0.2,0.7,0,1.1,0c5.1,0.7,10.2,1.5,15.3,2.2c0,0.2,0,0.4,0,0.6
			c-3.4,0.2-6.7,0.4-11.3,0.8c5.1,2,8.1,5.4,13.7,3.6c8.1-2.7,16.7-3.6,25.2-0.1c2.4,1,3.9-0.7,3.9-3.2c0-2.3,1.2-3.1,3.4-3.6
			C370.4,343.7,371.6,342,372,335.8z M452,334.8c-1.7-2.3-2.6-4.9-4.4-5.8c-7.7-3.9-16.1-4.3-24.6-3.9c-2.4,0.1-3.7,1.4-3.9,3.9
			c-0.6,6.1-1.3,12.2-1.9,18.3c-0.3,2.8,0.1,5.2,2.7,6.3c2.8-1.8,5.3-3.5,7.8-5.1c0.2,0.3,0.5,0.6,0.7,1c-0.9,1.7-1.7,3.4-3.1,6.1
			c3.3,0,5.6,0.2,7.9,0c9.3-0.7,18.6-3,27.5,1.7c0.8,0.4,2.1,0.6,2.7,0.2c4-2.7,7.6-1.7,11.4,0.4c-11.3-7.9-24.2-12.4-37.2-17.5
			C441.3,336.6,446.4,336.5,452,334.8z M346,486c-0.2,0.4-0.4,0.7-0.6,1.1c0.6,1.1,1,2.4,1.9,3.2c5.8,4.6,8.5,12,15.1,16
			c3.7,2.3,6.9,5.7,9.8,9c5.1,5.8,9,6.7,15.7,2.8c-1.9-3.9-1.9-3.9,1.6-5.6c2.4-1.1,4.7-2.3,7.2-3.1c2.3-0.8,2.7-2,2.4-4.3
			c-0.7-4.8-5-8.2-10.2-6.2c-4.2,1.6-7.5,0.3-11.3-0.3c-10.2-1.5-19.4-5.2-27.7-11.3C348.9,486.6,347.4,486.4,346,486z M462.6,481.1
			c-0.6,0.2-1.3,0.4-1.9,0.6c-1.2,2.2-2.3,4.4-3.7,7.1c-1.8-0.7-3.5-1.5-5.2-1.9c-1.1-0.2-2.9-0.1-3.4,0.7c-2.2,2.9-4.1,5.9-8.3,5.7
			c-0.3,0-0.8,0.7-1.1,1.2c-2.4,3.9-4.8,7.8-7.7,12.6c3.3,1.7,6.4,3.5,9.8,4.9c0.8,0.3,2.4-0.7,3.4-1.4c3.6-2.9,8-3.2,11.6-0.6
			c1.3,0.9,2.5,1.8,4,2.8c2.1-3,2.1-7.1,6.4-6.8c0.3,0,0.9-1.5,1.1-2.4c1.3-4.5,2.4-8.9,3.1-11.2C467.3,487.8,465,484.5,462.6,481.1
			z M122.6,325.5c1.5-3.5,2.8-6,3.6-8.7c1.3-4.1,1.7-8.6,3.7-12.3c4.1-7.4,0.8-12.8-3.6-18.2c-2-2.4-5.1-2.6-6.8-0.3
			c-1.7,2.4-3.4,5-4.1,7.8c-2.5,9.7,1.4,18.6,3.9,27.6C119.7,322.6,120.9,323.4,122.6,325.5z M154.5,349.3c2.6-10.6,1-12.7-3.9-20.1
			c-1.5-2.4-3.8-3.7-7.2-1.6c-4,2.4-7.8,4.7-10.4,8.9c-2.7,4.3,0.2,14,5.1,15.3c1.1,0.3,2.6,0.1,3.7-0.4c2.2-1.1,4.3-2.3,6.1-3.9
			C150.5,345.4,152.5,344.8,154.5,349.3z M282.1,317.6c10.5,0,20.5-1.3,30.4-4.3c-0.3-1.9-0.6-3.2-0.8-4.5c7.2-3,7.2-3,8.3-6.4
			c-2.7,0.5-5,0.8-7.2,1.3c-4.1,0.9-8.2,2.6-12.3,2.6C291.7,306.2,287.2,312.2,282.1,317.6z M535.7,410.7c0.6,0.1,1.2,0.2,1.8,0.2
			c0.9-7.3,2.2-14.6,2.5-22c0.3-5.7,1.5-10.9,3.8-16.1c2.7-5.9,5.1-12,7.1-18.2c1.1-3.5,1.6-7.5,0-11.5c-3.1,1.7-5.4,3.4-5.9,6.7
			c-1.5,8.6-1.5,17.3-4.5,25.7c-1.8,5-1.8,10.6-2.5,16C537.1,398,536.4,404.4,535.7,410.7z M357.9,360.6c0-0.4,0.1-0.8,0.1-1.2
			c-1.6-0.4-3.7-0.4-4.6-1.4c-6.1-7.1-12.1-4.2-18.6-0.8c-3.2,1.7-7.1,1.9-10.7,2.7c0,0.4,0.1,0.9,0.1,1.3
			C335.4,367.7,346.7,361.1,357.9,360.6z M425.1,363.6c1.4,3.4,4.6,3.9,8,3.9c5.5,0.1,11-0.2,16.5,0.2c3.2,0.2,6.1,0.6,9.1-2
			c-4.1-1.8-8-3.1-11.4-5.2c-4.8-2.9-9.3-2-13.9-0.2C430.8,361.5,428.1,362.5,425.1,363.6z M367.5,314.2c1.9,8.5,7,13,13.9,12.5
			c3.2-0.2,7.1-4.7,7.6-9.4c-5.7,1.7-10.2-0.2-13-4.3C372.8,313.4,370.4,313.7,367.5,314.2z M226.7,489.4c-3.2-0.2-4.6,0.9-4.3,4.3
			c0.2,2.3-0.1,4.9-0.9,7.1c-2.5,7,0,13.9,0.1,20.8c0,0.3,0.7,0.6,2.3,2c0.1-3.3,0.6-5.5,0.2-7.6c-0.4-2.4-1.7-4.6,0.5-6.8
			c0.4-0.4,0.8-1.5,0.6-2c-2.7-5.5,0.1-8.4,5.3-10C229.2,494.5,228,492.1,226.7,489.4z M422.3,49.9c-9.4-4.9-19.2-8.7-30.1-7.8
			C401.2,48.6,411.1,51.6,422.3,49.9z M196.7,459.3c0.8,3.3,1.5,6.4,2,8.6c3.1,0,5.5,0,8.7,0c-0.6-3-1.3-5.9-1.8-8.6
			C202.5,459.3,200.2,459.3,196.7,459.3z M144.6,366c-1.9,2.8-0.9,4.9,0.8,6.2c2.9,2.1,5.4,4.3,6.2,8.1c0.2,0.7,1.9,1.1,3.9,2.2
			C153.8,374.6,148.9,370.8,144.6,366z M169.4,495.2c-0.4,2.8-1.2,4.6-0.7,5.9c0.7,1.7,2.3,3.1,3.8,4.2c0.5,0.4,2.7-0.5,2.7-0.9
			c0.2-1.7,0.3-3.8-0.5-5.1C173.7,497.9,171.7,496.9,169.4,495.2z M253.2,552.1c-3-0.5-5.1-0.9-7.4-1.3c-0.7,3.4,0.5,5.9,3.9,6.8
			c1.2,0.3,2.7-0.1,4-0.2C253.5,555.5,253.3,553.7,253.2,552.1z M156.6,433.9c-1-2.8-1.5-4.3-2.2-6.5c-2.9,2.1-5.4,3.9-7.9,5.6
			c0.1,0.3,0.2,0.6,0.3,0.9C149.8,433.9,152.7,433.9,156.6,433.9z M282.9,480.7c0.2,3.2,0.4,5.3,0.6,7.8c2.8-0.8,5-1.5,7.5-2.2
			C288.3,484.4,286.1,482.8,282.9,480.7z M249.5,469.2c1.4-3.2,1.6-6.6,1-10.5C245.3,461.8,248.6,465.6,249.5,469.2z"/>
		<path d="M331.1,714.2c-6.6-5.7-13.1-11.5-19.8-17.1c-14.2-11.9-28.7-23.4-42.5-35.7c-18.2-16.2-34-34.8-50.1-53
			c-5.5-6.1-10.8-12.4-16.1-18.7c-1.4-1.7-3.3-3.3-1.5-5.9c0.4-0.6,0.1-1.8-0.2-2.6c-5-11.1-10.3-22-15-33.2
			c-4.1-9.8-7.6-19.8-11.3-29.7c2.5-4.6-4.1-6.5-3.5-11.6c4.8,2.8,9,5.2,13.8,8c2.8-3.2,6.6-2.5,10.4,1.9c1.1-1.9,1.8-3.3,2.4-4.3
			c2.2,0.4,4.3,0.9,7,1.4c0.4,1.5,0.9,3.3,1.4,5.6c-2.4,0.2-4,0.4-6.5,0.6c0.9,3.2,1.2,6.6,2.9,8.9c1,1.3,4.4,1.9,6.3,1.3
			c2.7-0.7,5-2.8,8.5-4.9c-2.3,5.5-7.2,10.3,0.2,14.2c3.8-0.6,2.8-3.9,2.7-6.8c0.5-0.1,1-0.1,1.5-0.2c0.5,1,1.7,2.3,1.4,2.9
			c-1.7,3.4-0.6,5.8,1.4,8.7c1.2,1.7,0.5,4.7,0.8,7.1c0.2,1.8,0.3,3.6,0.5,5.4c0.5,0.1,0.9,0.3,1.4,0.4c1.2-2,2.4-4.1,3.8-6.3
			c2.8,0.7,5.9,1.4,9,2.2c-1.2,1.5-2.5,3-4.4,5.4c4.5,0.4,6.3,2.2,7.7,5.4c1,2.3,4.4,3.5,6.6,5.1c-3.1,3.8-1.5,6.3,8.3,12
			c1.9-1,3.5-1.9,5.2-2.8c0.7,1.5,1.4,3,2.7,5.6c2.3-0.9,5.3-2.2,9.5-3.9c0.2,3.1,0.9,5.9,0.6,8.6c-0.3,2.5,0.7,3.9,2.6,5
			c2,1.3,4,2.6,6.2,4c0.5,5.6,5.1,9.1,8.8,13.1c0.5,0.6,1.8,1,2.5,0.8c4.5-1.4,6.4,0.6,6.2,4.6c5.7,0.8,11,1.6,16.3,2.3
			c0,0.4,0,0.9,0,1.3c-1.4,0.9-2.8,1.8-4.4,2.7c8.4,5.5,16.8,5.4,25.8,3.3c4.9-1.1,9.9-1.4,14.4,1.9c4.4,3.2,9.2,1.9,14.2,0.1
			c0.7,1.6,1.4,3.1,2.2,4.8c3.7-1.2,7.4-2.5,11.5-3.9c2,0.8,2.7,5.5,6.7,3.6c1.6-8.1,1.6-8.1,13.4-9c-0.3-1.8-0.6-3.5-1-5.7
			c1.3-0.1,2.5,0,3.6-0.4c1.9-0.6,4.2-1.1,5.3-2.5c2.6-3.3,4.5-7.2,6.8-10.8c1.1-1.7,2.3-3.3,3.4-5c1.9-2.9,3.7-5.9,5.8-9.2
			c1.6,0.6,3.2,1.3,5.4,2.1c-0.8-7.7,6.6-6,9.9-9.1c1.5-1.4,3.4-2.5,5-3.8c1.4-1.2,2.7-2.6,4.1-3.8c0.8-0.7,2.5-1.3,2.6-2.1
			c0.7-6,6.9-8,9-13c0.7-1.6,2.9-2.4,4.9-3.9c-3.1-5.6,1.3-9.2,4.5-13.3c1.2,0.2,2.4,0.5,4.7,0.9c-1.2-1.5-1.9-2.4-2.9-3.7
			c1.6-1.5,3.3-3.1,5.3-4.9c1.3,1.7,2.3,3,3.3,4.2c5.6-2.3,5.7-2.5,3-7.8c0.8-0.1,1.5-0.1,2.2-0.2c0.7-0.1,1.4-0.3,2.6-0.5
			c-0.8-1.3-1.2-2.3-1.9-3c-0.6-0.7-1.4-1.2-1.8-1.6c2.8-2.1,6.8-3.6,7.7-6.2c0.9-2.5-1.3-6.2-2.1-9.3c-0.5-0.1-0.9-0.1-1.4-0.2
			c1.4-1.1,2.7-2.1,4.5-3.5c1.4,4.1,2.6,7.6,4,11.7c4.4-3.7,3-7.8,3-11.6c0.4-0.1,0.8-0.2,1.3-0.2c0.8,2.3,1.5,4.7,2.3,7
			c0.3,0.1,0.6,0.1,0.9,0.2c0.4-2.4,1-4.9,1.2-7.3c0.2-2.4-0.1-4.5-3.4-4.6c-0.9,0-2.6-1.7-2.4-2.2c0.3-1.2,1.4-3,2.4-3.2
			c6.3-1.1,10.4-4.6,12.6-10.5c0.1-0.2,0.1-0.4,0.2-0.5c1.2-0.8,2.4-1.6,3.6-2.4c0.6,1.4,1.8,2.8,1.6,4.1
			c-2.6,20.4-12.3,38.2-21.8,55.9c-13,24.2-32.8,42.4-53,60.3c-7.5,6.6-13.8,14.6-20.9,21.7c-11.3,11.3-16.8,25.8-23.1,39.9
			c-3,6.7-6.5,12.7-12.9,17c-6.5,4.4-12.3,9.8-18.8,14.2c-10.5,7.2-20.1,16.3-33.6,17.9C335.6,714.2,333.3,714.2,331.1,714.2z
			 M209.1,543.4c0.3-2.5,0.9-5,0.5-5.2c-1.7-0.8-3.8-0.9-6.1-1.4c-0.2-1.1-0.5-2.7-1-5.3c-2.4,1.3-4.2,2.4-6.5,3.7
			C200.4,538,204.1,540.2,209.1,543.4z M364.5,698.6c0-0.5,0-0.9,0-1.4c-1.4-0.1-3.4-0.9-4-0.3c-3.5,3.5-8.9,5.1-10.8,10.1
			c0.4,0.4,0.7,0.9,1.1,1.3C355.3,705.1,359.9,701.9,364.5,698.6z"/>
		<path d="M352.9,26c-3.4,1.4-5.8,2.4-8.3,3.5c0.1,0.5,0.3,1.1,0.4,1.6c1.9,0,4,0.6,5.6-0.1c5.1-2.4,10-3.3,15.4-0.5
			c2.5,1.3,5.9,0.9,8.8,1.6c1.8,0.4,4.9-0.9,5,2.9c0,0.1,3,0.2,4.5,0.3c-1,2.5-1,2.5-6.6,3.3c1.7,4.3,5.6,4.7,9.2,6
			c7.8,3,15.4,6.6,23.3,9.6c2.3,0.9,5,0.9,7.5,0.7c2.3-0.1,4.4,0,5,2.4c0.9,3.4,3.4,4.3,6.1,4.9c3.4,0.7,5.5,2.7,7.6,5.8
			c-4.6,1.7-8.6,0.2-11-1.9c-6.6-5.8-14.7-6.2-22.4-7.6c-6.9-1.3-7.2-0.9-12.3-7c0.2,1.9,0.3,3,0.5,5.4c-3.4-1-6.3-1.8-9.2-2.7
			c-6.3-1.9-12.5-3.9-18.8-5.7c-0.8-0.2-1.9,0.7-3.5,1.5c1.9,1.1,3.2,2.5,4.4,2.3c4.2-0.4,6.9,2.1,10.2,3.9c2.9,1.6,6.7,2.9,9.7,2.4
			c5.3-0.9,9,2.4,12.1,4.7c7.1,5.1,15.1,6.4,23,8.2c4,0.9,7.5,1.7,11.1,4.8c3.9,3.4,7.7,6.6,11,10.7c2,2.4,5.6,3.4,8.5,5.1
			c0.8,0.4,1.5,1,2.4,1.5c-3.5,6.3-8.5,8.4-15.1,7c-5.1-1.1-10.2-2.5-15.3-3.2c-6.4-0.9-12.9-1.3-19.4-1.9c-1.1-0.1-2.1-0.7-3.1-1
			c-4.3-1.1-8.7-2.1-13-3.2c-0.4-0.1-0.9-0.3-1.1-0.1c-5.3,5.1-10.9,1.1-16.4,0.7c-9.9-0.6-19.7-1.3-29.6-1.9
			c-8.5-0.5-17-0.9-25.5-1.6c-2.3-0.2-4.5-1.3-6.8-1.9c-3.6-0.9-7.2-1.8-10.8-2.6c-3.6-0.8-7.2-1.9-10.8-2.1
			c-8.8-0.6-16.5,1.8-23.3,7.7c-3.4,3-8,4.5-11.5,7.5c-4.4,3.7-8.3,8.1-12.4,12.1c-3.8,3.8-7.9,7.4-11.4,11.5
			c-4.3,5-8.1,10.5-12.1,15.8c-3.2,4.3-6.5,8.6-9.6,13c-0.8,1.1-1,2.7-1.7,3.9c-1.1,1.8-2.1,3.7-3.6,5.2c-2.3,2.4-4.9,4.5-7.6,6.9
			c2.1,1.3,4.2,1.8,5.1,3.2c3.1,4.6,2.7,6.6-1.8,9.9c-3,2.2-4.9,4.4-4.2,8.4c0.6,2.9-1.3,4.6-3.7,5.7c-4.2,1.9-8.6,3.5-12.6,5.6
			c-1.3,0.6-2.3,2.4-2.7,3.9c-0.7,2.2-0.8,4.7-1.1,7.3c2.2,0,3.7,0,6.6,0c-1.2,2.9-2.3,5.1-3.2,7.3c-0.5,1.3-1.6,3.3-1.1,3.8
			c3.4,3.5,1.9,7.5,0.2,10.4c-3.9,6.8-1.1,13.6-1.3,20.3c0,0.5,0.6,1.1,0.6,1.6c-0.6,6.4-1.3,12.8-1.9,19.2
			c-6.7,3.4-3.3,9.7-4.1,14.7c-0.8,5-1.2,10-2.3,14.9c-0.4,1.7-2,3.2-3.4,5.4c-3.9-4.2-6-8.6-4.9-12.8c1-4,0.8-7.7,0.3-11.5
			c-0.1-1,0.4-2,0.8-3.7c1.4,2,2.4,3.3,3.4,4.7c0.3-0.1,0.6-0.2,1-0.2c0-4.5,0-9.1,0-13.4c-0.3,1.5-0.6,3.2-0.9,5
			c-0.4,0.1-0.7,0.2-1.1,0.3c-1.9-4-3.9-8-6-12.5c-1.7,2.9-7.3,1.4-6.6,7.3c-4.1-6-3.9-12.1-3.4-18.3c3.3-45.2,15.3-87.9,34.2-129
			c6.2-13.6,15.6-24.4,25.7-35c4.8-5.1,10.1-9.9,14.2-15.6c3.4-4.8,7.8-8,12.3-11c11.4-7.4,22.3-15.8,35.7-19.8
			C278,37.7,290,33,302.5,29.6c7.9-2.1,16.2-2.9,24.4-3.7c7.1-0.7,14.2-0.7,21.3-0.9C349.4,24.9,350.6,25.5,352.9,26z M374,38.4
			c-2-4.4-6.8-5.3-14.9-2.7C363.8,38.4,368.1,41.2,374,38.4z M297.7,57.7c-3.3-3.7-6.4-7.1-9.6-10.7
			C286.4,52.8,288.8,55.6,297.7,57.7z"/>
		<path d="M353,415.9c-2.7-0.9-6-3.1-8.1-2.3c-5,2-9.5,5.4-11.6,10.8c-2.2,5.5-5.1,10.4-10.2,13.7c-1.5,1-3.3,1.4-4.9,2.1
			c-0.9,0.4-2.3,0.9-2.5,1.6c-0.3,0.8,0.3,2.4,1,2.8c1.6,1,3.5,1.6,5.4,2.2c1.1,0.4,2.4,0.4,4,0.6c-0.5,2-1,3.5-1.5,5.7
			c2.5,0.9,4.8,2.2,7.3,2.5c9.8,1.4,19.7,2.4,29.5,3.9c5.1,0.8,10,2.7,15,3.6c5.9,1,11.9,2.6,17.7,1.9c7.8-0.9,15.3,0.4,22.9,1.3
			c2.4,0.3,4.9,0.7,7.3,0.7c3.4-0.1,6.5-0.9,8.7-4.2c1.2-1.8,3.1-3.3,4.9-4.5c1.5-1.1,3.2-1.4,3.1-4c-0.1-2.2,2.3-2.9,3.6-1.5
			c1.9,2.1,4.2,4.9,4.1,7.3c-0.1,3.5-1.3,7.8-5.8,8.6c-11,2-17.3,9.2-21.9,18.7c-1.8,3.7-4.1,7-8.2,8.7c-2,0.8-3.7,2.4-5.7,3.8
			c-2.3-2-1.5-3.4,0.9-4.4c4.2-1.8,6.9-4.9,8.7-9c1.2-2.7,0.3-4.2-2.5-3.7c-2.5,0.5-5.3,1.1-7.4,2.5c-6.3,4.3-13.2,5-20.4,4.3
			c-5.9-0.6-11.9-1.2-17.7-2.2c-3.2-0.6-6.3-0.9-9.1-4.2c-2.5-2.9-7.5-4.3-11.6-4.8c-9.2-1.2-15.2-6.8-20.6-13.3
			c-3.6-4.4-7.4-7.7-13.5-7.8c-4.4-0.1-5.7-1.9-4.9-6.2c0.5-2.6,1.5-5.1,2.4-8.4c-0.3-0.3-1.3-1.4-2.2-2.4c-4.9,2.4-8.1,5.7-8,11.4
			c-2.8-4.6-1.9-9.6,0.7-13c3.5-4.5,7.3-8.9,12.9-11.8c4.8-2.5,9.9-6.1,13.3-10.4c4.5-5.7,10.2-8,16.6-9.3
			C350.7,406.1,354.1,410.1,353,415.9z M368.1,472c-0.8-1-1.4-1.6-2-2.4c-1.6-2.3-3.9-4.6-6.4-2.7c-1.9,1.4-3.1,4.5-3.5,7
			c-0.7,3.5,2.5,4.8,5.1,5.7c6,2.3,11.7,5.7,18.6,4c1.1-0.3,2.5,0.8,3.7,0.8c4,0.1,8.2,0.7,12-0.3c2.2-0.6,4.2-2.4,6.9-2.6
			c2.7-0.2,4.9-4.2,3.7-6.4c-1.4-2.7-3.6-1.9-5.8-0.9c-0.6,0.3-1.3,0.5-2.1,0.8c-4.2-5.2-9.1-4.4-13.9-1.8
			C378.2,468.4,373.8,467.6,368.1,472z M353.1,471.7c-0.4-6.1-1.9-8.7-4.9-7.9c-1.1,0.3-2.4,2.2-2.5,3.4
			C345.4,470.6,348.1,472.2,353.1,471.7z"/>
		<path d="M377.8,550.7c5.8,3.7,10.4,1.2,18.1-4.4c4.1,4.4,8.2,8.7,12.7,13.5c-0.1,3.9-1.5,8-6.2,10.5c-1.2,0.6-1.9,2.3-2.5,3.7
			c-1.1,2.4-2.6,3.8-5.4,4.2c-2.1,0.3-4,1.7-6.4,2.8c-4-3.9-8.7-1.5-13.3-0.2c-5.4,1.5-10.7,4.2-16.1,4.2c-3.5,0-7.5-2.3-11.5-2.7
			c-0.7-0.1-1.3-2.4-1.7-3.7c-0.4-1.7-0.5-3.6-1.6-5.5c-0.5,1.2-1,2.4-1.5,3.6c-3.1-2.4-5.8-5.7-9.1-6.9c-4.1-1.4-3.9-3.8-2.6-6.4
			c1.3-2.6,1.7-4.8,0.4-7.4c-0.4-0.8-0.4-2.5,0.2-3c3.2-2.9,5.5-7.3,10.9-7.1c1.1,0,2.9-1.3,3.1-2.2c0.2-1.1-0.7-3.5-1.5-3.7
			c-4.6-1.2-3.6-6.7-7-8.9c-0.7-0.5-0.2-3.9,0.5-5.6c1.3-3.2,3.2-6.2,5.2-10c0.1,3,0.3,5.6,0.4,8.6c5.4,0.7,4.7,5,4.4,8.8
			c-0.3,3.9,0.9,7.1,3.9,9.3c1,0.8,2.8,1.2,3.9,0.8c0.8-0.2,1.7-2.3,1.4-3.2c-0.4-1.1-1.9-1.9-3-2.7c-0.7-0.4-1.6-0.5-3.7-1.1
			c3.4-2.4,5.8-4.2,9.3-6.7c0.3,2.1,0.7,3.4,0.7,4.7c0.1,4.2,1.7,5.2,5.8,6.6c2.4,0.8,4,3.9,5.8,6.1c0.5,0.6,0.2,1.8,0.5,2.7
			C372.9,553.3,374.9,553.6,377.8,550.7z"/>
		<path d="M379.1,441.7c-4.1,2.1-7.8,3.9-11.8,5.9c-0.4-4.4,0.1-8.1-1.2-11.2c-1.3-3.1-4.6-5.3-6.6-8.2c-1.7-2.3-2.8-5.1-4.6-8.3
			c9.6-0.3,18.3,2.6,26.1-1.2c7.1,1.7,12.4,7.9,20.4,5.2c3.1-1.1,6.4-1.6,9.8,0.3c1.4,0.8,3.9-0.1,5.9-0.3c2.8-0.3,5.5-1,8.2-0.9
			c1.1,0,2.6,1.5,3.1,2.7c0.3,0.7-0.9,2.3-1.7,3.2c-0.7,0.8-1.8,1.4-2.9,1.6c-4.2,0.9-5.9,4.2-8,7.3c-2.2,3.1-5.4,5.7-6.8,9.1
			c-2.7,6.6-8.2,5.5-13.3,5.9c-0.9,0.1-1.8-0.3-2.9-0.4c0.1-1,0.3-1.7,0.1-2.4c-0.5-2.1-1.2-4.1-1.8-6.1c-1.7,0.6-3.4,1-4.9,1.9
			C382,448.4,380.8,447.9,379.1,441.7z"/>
		<path d="M372,335.8c-0.4,6.2-1.6,7.9-7.1,9c-2.2,0.5-3.4,1.3-3.4,3.6c0,2.6-1.5,4.3-3.9,3.2c-8.5-3.5-17-2.6-25.2,0.1
			c-5.6,1.8-8.6-1.5-13.7-3.6c4.6-0.3,7.9-0.5,11.3-0.8c0-0.2,0-0.4,0-0.6c-5.1-0.7-10.2-1.5-15.3-2.2c-0.4-0.1-0.9-0.2-1.1,0
			c-3.3,3.9-7.4,0.4-11,1.1c-2.2,0.4-4.3,1.2-6.4,1.5c-2.2,0.3-4.4,0.1-6.6,0.1c-1.9-6.2,0.4-10.6,6.3-12
			c11.7-2.8,23.3-5.4,35.5-4.8c8,0.4,16-0.3,24,0.3c3.1,0.2,6.1,2.5,9.2,3.6C367,335,369.5,335.3,372,335.8z"/>
		<path d="M452,334.8c-5.6,1.7-10.7,1.8-14.5,5.6c13,5.1,25.9,9.6,37.2,17.5c-3.8-2.1-7.5-3.1-11.4-0.4c-0.6,0.4-1.9,0.2-2.7-0.2
			c-8.9-4.7-18.3-2.4-27.5-1.7c-2.3,0.2-4.6,0-7.9,0c1.4-2.7,2.3-4.4,3.1-6.1c-0.2-0.3-0.5-0.6-0.7-1c-2.5,1.6-5,3.2-7.8,5.1
			c-2.5-1.1-3-3.6-2.7-6.3c0.6-6.1,1.3-12.2,1.9-18.3c0.2-2.5,1.5-3.8,3.9-3.9c8.5-0.4,16.9,0,24.6,3.9
			C449.3,329.9,450.3,332.5,452,334.8z"/>
		<path d="M346,486c1.3,0.4,2.9,0.5,4,1.3c8.3,6.1,17.5,9.8,27.7,11.3c3.8,0.6,7.1,1.9,11.3,0.3c5.2-1.9,9.5,1.5,10.2,6.2
			c0.3,2.2-0.1,3.5-2.4,4.3c-2.5,0.8-4.8,2-7.2,3.1c-3.6,1.7-3.6,1.7-1.6,5.6c-6.6,3.9-10.6,2.9-15.7-2.8c-2.9-3.3-6.1-6.8-9.8-9
			c-6.6-4-9.3-11.4-15.1-16c-0.9-0.7-1.3-2.1-1.9-3.2C345.6,486.8,345.8,486.4,346,486z"/>
		<path d="M462.6,481.1c2.4,3.3,4.7,6.7,7.9,11.2c-0.6,2.3-1.8,6.8-3.1,11.2c-0.2,0.9-0.8,2.4-1.1,2.4c-4.4-0.3-4.4,3.8-6.4,6.8
			c-1.4-1-2.7-1.9-4-2.8c-3.6-2.6-8-2.3-11.6,0.6c-0.9,0.8-2.5,1.7-3.4,1.4c-3.3-1.4-6.4-3.2-9.8-4.9c2.9-4.8,5.3-8.7,7.7-12.6
			c0.3-0.5,0.8-1.2,1.1-1.2c4.3,0.2,6.2-2.8,8.3-5.7c0.5-0.7,2.3-0.9,3.4-0.7c1.8,0.3,3.4,1.2,5.2,1.9c1.4-2.6,2.5-4.9,3.7-7.1
			C461.3,481.6,462,481.3,462.6,481.1z"/>
		<path d="M122.6,325.5c-1.7-2-2.9-2.9-3.2-4c-2.6-9-6.5-18-3.9-27.6c0.7-2.8,2.4-5.5,4.1-7.8c1.7-2.3,4.8-2.1,6.8,0.3
			c4.4,5.4,7.7,10.8,3.6,18.2c-2,3.7-2.4,8.2-3.7,12.3C125.4,319.5,124.1,322,122.6,325.5z"/>
		<path d="M154.5,349.3c-2-4.6-4-4-6.5-1.8c-1.8,1.6-4,2.8-6.1,3.9c-1.1,0.5-2.6,0.7-3.7,0.4c-4.9-1.4-7.7-11-5.1-15.3
			c2.6-4.2,6.3-6.5,10.4-8.9c3.4-2,5.6-0.7,7.2,1.6C155.5,336.7,157.1,338.7,154.5,349.3z"/>
		<path d="M282.1,317.6c5.1-5.4,9.5-11.4,18.2-11.4c4.1,0,8.2-1.7,12.3-2.6c2.3-0.5,4.5-0.8,7.2-1.3c-1.1,3.4-1.1,3.4-8.3,6.4
			c0.2,1.3,0.5,2.6,0.8,4.5C302.7,316.3,292.7,317.6,282.1,317.6z"/>
		<path d="M535.7,410.7c0.8-6.4,1.5-12.8,2.3-19.1c0.7-5.4,0.7-11,2.5-16c3-8.4,3-17.2,4.5-25.7c0.6-3.4,2.8-5,5.9-6.7
			c1.6,4.1,1.1,8,0,11.5c-2,6.2-4.4,12.3-7.1,18.2c-2.3,5.2-3.6,10.4-3.8,16.1c-0.4,7.3-1.7,14.6-2.5,22
			C536.9,410.9,536.3,410.8,535.7,410.7z"/>
		<path d="M357.9,360.6c-11.3,0.6-22.5,7.1-33.8,0.6c0-0.4-0.1-0.9-0.1-1.3c3.6-0.9,7.6-1.1,10.7-2.7c6.6-3.4,12.6-6.4,18.6,0.8
			c0.9,1,3,1,4.6,1.4C358,359.7,358,360.2,357.9,360.6z"/>
		<path d="M425.1,363.6c3-1.1,5.6-2.1,8.3-3.2c4.7-1.8,9.2-2.7,13.9,0.2c3.4,2.1,7.3,3.4,11.4,5.2c-2.9,2.5-5.9,2.2-9.1,2
			c-5.5-0.4-11-0.2-16.5-0.2C429.8,367.5,426.6,367,425.1,363.6z"/>
		<path d="M367.5,314.2c2.9-0.4,5.3-0.8,8.4-1.2c2.8,4,7.3,6,13,4.3c-0.4,4.7-4.3,9.2-7.6,9.4C374.5,327.2,369.5,322.7,367.5,314.2z
			"/>
		<path d="M226.7,489.4c1.4,2.7,2.5,5.1,3.9,7.8c-5.3,1.7-8.1,4.5-5.3,10c0.2,0.5-0.1,1.5-0.6,2c-2.2,2.2-1,4.4-0.5,6.8
			c0.4,2.1-0.1,4.3-0.2,7.6c-1.6-1.3-2.3-1.7-2.3-2c-0.2-6.9-2.6-13.8-0.1-20.8c0.8-2.2,1.1-4.8,0.9-7.1
			C222.1,490.3,223.5,489.2,226.7,489.4z"/>
		<path d="M422.3,49.9c-11.2,1.6-21.1-1.3-30.1-7.8C403.1,41.3,412.9,45,422.3,49.9z"/>
		<path d="M144.6,366c4.3,4.8,9.2,8.6,10.9,16.5c-2-1.1-3.7-1.5-3.9-2.2c-0.8-3.8-3.3-6-6.2-8.1C143.7,371,142.7,368.8,144.6,366z"
			/>
		<path d="M169.4,495.2c2.3,1.7,4.3,2.7,5.4,4.2c0.8,1.3,0.7,3.4,0.5,5.1c0,0.4-2.3,1.2-2.7,0.9c-1.5-1.1-3.1-2.6-3.8-4.2
			C168.2,499.8,169,498,169.4,495.2z"/>
		<path d="M253.2,552.1c0.2,1.5,0.4,3.4,0.6,5.3c-1.4,0.1-2.8,0.5-4,0.2c-3.4-0.9-4.6-3.4-3.9-6.8
			C248,551.2,250.2,551.6,253.2,552.1z"/>
		<path d="M282.9,480.7c3.2,2.2,5.4,3.7,8.1,5.5c-2.5,0.7-4.7,1.4-7.5,2.2C283.3,486,283.2,483.9,282.9,480.7z"/>
		<path d="M249.5,469.2c-0.9-3.6-4.2-7.4,1-10.5C251.1,462.6,250.9,466,249.5,469.2z"/>
		<path class="st0" d="M209.1,543.4c-5-3.1-8.7-5.4-13.1-8.2c2.2-1.3,4.1-2.3,6.5-3.7c0.5,2.6,0.8,4.1,1,5.3
			c2.3,0.4,4.4,0.5,6.1,1.4C210,538.3,209.4,540.9,209.1,543.4z"/>
		<path class="st0" d="M364.5,698.6c-4.6,3.3-9.2,6.5-13.8,9.8c-0.4-0.4-0.7-0.9-1.1-1.3c1.9-5,7.3-6.7,10.8-10.1
			c0.6-0.6,2.6,0.2,4,0.3C364.5,697.7,364.5,698.1,364.5,698.6z"/>
		<path class="st0" d="M374,38.4c-5.9,2.7-10.2-0.1-14.9-2.7C367.1,33.2,372,34.1,374,38.4z"/>
		<path class="st0" d="M297.7,57.7c-8.9-2.1-11.4-4.9-9.6-10.7C291.3,50.6,294.4,54,297.7,57.7z"/>
		<path class="st0" d="M368.1,472c5.6-4.3,10.1-3.6,16.4,1.3c4.8-2.5,9.7-3.3,13.9,1.8c0.7-0.3,1.4-0.5,2.1-0.8
			c2.1-1,4.4-1.8,5.8,0.9c1.2,2.2-1,6.3-3.7,6.4c-2.8,0.2-4.7,2-6.9,2.6c-3.8,1-8,0.4-12,0.3c-1.3,0-2.6-1.1-3.7-0.8
			c-6.9,1.7-12.6-1.8-18.6-4c-2.6-1-5.7-2.2-5.1-5.7c0.5-2.5,1.6-5.6,3.5-7c2.5-1.9,4.8,0.4,6.4,2.7
			C366.7,470.3,367.3,471,368.1,472z"/>
		<path class="st0" d="M353.1,471.7c-5,0.5-7.6-1.1-7.4-4.5c0.1-1.3,1.4-3.2,2.5-3.4C351.2,463,352.7,465.6,353.1,471.7z"/>
	</g>
</g>
<g>
	<path d="M19.7,620.9H45v76.5h16.9v7.3H19v-7.3h17v-69.2H19.7V620.9z"/>
	<path d="M104,645.8c3.5,0,6.9,0.7,10,2.1c3.2,1.4,5.9,3.4,8.3,6c2.4,2.6,4.2,5.8,5.6,9.5c1.4,3.7,2.1,7.9,2.1,12.5
		c0,4.7-0.7,8.9-2,12.6c-1.3,3.7-3.2,6.9-5.5,9.5c-2.4,2.6-5.1,4.7-8.3,6c-3.2,1.4-6.6,2.1-10.2,2.1c-3.7,0-7.2-0.8-10.4-2.3
		c-3.2-1.5-6.1-3.6-8.5-6.2c-2.4-2.6-4.4-5.8-5.8-9.5c-1.4-3.7-2.1-7.7-2.1-12c0-4.3,0.7-8.3,2.2-12.1c1.5-3.8,3.4-7,5.9-9.6
		c2.5-2.6,5.4-4.7,8.6-6.3C97.1,646.6,100.5,645.8,104,645.8z M120.9,676.2c0-3.6-0.5-6.8-1.4-9.6c-1-2.8-2.2-5.2-3.8-7.1
		c-1.6-1.9-3.4-3.4-5.5-4.4c-2.1-1-4.2-1.5-6.5-1.5c-2.3,0-4.4,0.5-6.5,1.5c-2.1,1-3.9,2.5-5.4,4.4c-1.6,1.9-2.8,4.3-3.7,7
		c-0.9,2.7-1.4,5.8-1.4,9.3c0,3.4,0.5,6.4,1.4,9.2c0.9,2.8,2.2,5.2,3.7,7.2c1.6,2,3.4,3.6,5.5,4.7c2.1,1.1,4.3,1.6,6.7,1.6
		c2.4,0,4.6-0.5,6.6-1.4c2.1-1,3.9-2.4,5.4-4.3c1.6-1.9,2.8-4.2,3.7-7C120.5,682.9,120.9,679.7,120.9,676.2z"/>
	<path d="M145.7,620.9h25.3v76.5H188v7.3h-43v-7.3h17v-69.2h-16.3V620.9z"/>
</g>
</svg>
