<?xml version="1.0" encoding="utf-8"?>
<!-- Generator: Adobe Illustrator 21.0.0, SVG Export Plug-In . SVG Version: 6.00 Build 0)  -->
<svg version="1.1" id="Layer_1" xmlns="http://www.w3.org/2000/svg" xmlns:xlink="http://www.w3.org/1999/xlink" x="0px" y="0px"
	 viewBox="0 0 595.3 841.9" style="enable-background:new 0 0 595.3 841.9;" xml:space="preserve">
<style type="text/css">
	.st0{fill:#FFFFFF;}
</style>
<g id="tuA27g_1_">
	<g>
		<path class="st0" d="M38.6,336.6c14.1-7.3,27.2-14.3,40.7-20.8c5.4-2.6,5.9-5.3,3.7-10.5c-11-25.7-21.8-51.5-32.6-77.3
			c-1-2.3-1.8-4.7-3.4-8.9c17,4.8,32.3,9.1,49.1,13.8c-8.1-31.2-15.9-61.3-24.1-93c21.8,3.6,42.4,7,64.4,10.6
			c-3.5-32-6.8-62.6-10.2-93.3c0.6-0.4,1.1-0.9,1.7-1.3c23.6,17.1,47.3,34.2,71.6,51.8c19.2-31.5,37.9-62.4,57.9-95.2
			c1,4.1,1.8,6.2,1.9,8.3c2.5,36.6,4.9,73.3,7.2,110c0.7,10.2,0.8,10.3,10.8,8.6c16.6-2.8,33.2-5.2,49.8-7.7
			c1.3-0.2,2.7,0.2,5.2,0.5c-12.6,32-25,63.4-38.2,96.6c20.9-5.2,40.2-10,61.8-15.3c-11.6,29.5-22.4,57.3-33.7,86
			c15.6,6.7,31,13.2,46.7,19.9c-0.4,1.4-0.5,2.5-1,3.5c-26.5,49.5-53.1,99.1-79.8,148.6c-2.2,4.1-3.2,6.9,0.8,11
			c9.3,9.6,8.8,21.3-0.9,30.9c-11.7,11.7-26.8,16.7-42.5,19.9c-33.8,6.7-67.4,6.3-99.8-6.8c-8.3-3.4-16.1-9.1-22.7-15.3
			c-7.7-7.2-7.9-18.3-1.1-26.4c3.6-4.2,2.9-6.9,0.4-11.1c-26.4-42.8-52.6-85.7-78.9-128.6C41.8,342.5,40.5,340,38.6,336.6z
			 M220.3,252.4c7.5,0,14.3-0.3,21.1,0.1c5.1,0.3,7.1-1.1,7.1-6.7c-0.3-28.5-0.2-56.9,0-85.4c0-4.7-1-6.8-6.3-6.7
			c-5.1,0-7.1,1.2-7,6.7c0.3,23.5,0.1,47,0.1,70.5c0,2.5-0.2,5.1-0.3,7.9c-9.9,0-19.2,0-29.3,0c0-3,0-5.6,0-8.2
			c0-13.8-0.3-27.5,0.1-41.3c0.2-5.8-1.8-7.6-7.4-7.1c-4.7,0.4-9.5,0.3-14.2,0c-4.8-0.3-6.1,1.8-6,6.3c0.2,12.8,0.1,25.6,0.1,38.4
			c0,3.9,0,7.8,0,12.3c-12.7,0-24.3,0.2-35.9-0.1c-5.3-0.2-7,1.4-6.9,6.8c0.2,28.5,0.2,56.9,0,85.4c0,4.9,1.4,6.6,6.4,6.6
			c5.3,0,7-1.5,6.9-6.9c-0.3-23.5-0.1-47-0.1-70.5c0-2.5,0-5,0-7.7c5.6,0,10.2,0,15.4,0c0,3.6,0,6.6,0,9.7c0,70,0,140-0.1,210
			c0,4.8,0.1,7.9,6.6,7.9c6.5,0,6.6-3.1,6.6-7.9c-0.1-37.3-0.1-74.5-0.1-111.8c0-2.7,0-5.5,0-8.2c10.5,0,19.8,0,29.2,0
			c0.1,2,0.5,3.5,0.3,4.8c-1.3,7.4,1.8,9.7,9,9c6.2-0.6,12.6-0.1,19.5-0.1c0,3.7,0,6.2,0,8.8c0,18.7,0.2,37.5-0.1,56.2
			c-0.1,5.3,2,6.3,6.7,6.3c4.8,0,6.7-1.3,6.6-6.4c-0.2-24-0.2-47.9,0-71.9c0.1-5.3-2.1-6.4-6.8-6.2c-7,0.3-14.1,0.1-21.5,0.1
			C220.3,319.3,220.3,286.4,220.3,252.4z M131.2,489.2c-5.4,6.3-4.5,12,0.5,16.4c4.8,4.1,10.1,8.1,15.9,10.4c38.9,15,78.1,15,117,0
			c6.2-2.4,12.1-6.7,16.9-11.4c5.7-5.5,4.3-11.6-2.3-16.4c-8.4,13.9-14.9,19.3-31.4,24.3c-28.6,8.6-57.4,8.6-85.9,0
			C149.3,508.7,137.4,503.1,131.2,489.2z"/>
		<path class="st0" d="M86.5,449.7c-20-10.3-40-20.7-61.3-31.7c9.5-7.9,17.8-14.8,27.1-22.5c12.2,17.8,23.9,35.1,35.7,52.4
			C87.5,448.5,87,449.1,86.5,449.7z"/>
		<path class="st0" d="M380.1,412.5c-21.7,13.8-41.8,26.5-61.8,39.3c-0.6-0.6-1.2-1.2-1.9-1.8c12.4-18.4,24.8-36.7,37.7-55.9
			C362.9,400.3,370.8,405.9,380.1,412.5z"/>
		<path d="M220.3,252.4c0,34.1,0,67,0,100.8c7.4,0,14.4,0.2,21.5-0.1c4.7-0.2,6.8,1,6.8,6.2c-0.2,24-0.2,47.9,0,71.9
			c0.1,5.2-1.8,6.4-6.6,6.4c-4.7,0-6.8-1.1-6.7-6.3c0.3-18.7,0.1-37.5,0.1-56.2c0-2.6,0-5.1,0-8.8c-6.9,0-13.3-0.5-19.5,0.1
			c-7.2,0.7-10.3-1.6-9-9c0.2-1.4-0.2-2.8-0.3-4.8c-9.4,0-18.8,0-29.2,0c0,2.7,0,5.4,0,8.2c0,37.3,0,74.5,0.1,111.8
			c0,4.8-0.2,7.9-6.6,7.9c-6.5,0-6.6-3.1-6.6-7.9c0.1-70,0.1-140,0.1-210c0-3,0-6.1,0-9.7c-5.2,0-9.8,0-15.4,0c0,2.7,0,5.2,0,7.7
			c0,23.5-0.2,47,0.1,70.5c0.1,5.4-1.6,6.9-6.9,6.9c-5.1,0-6.5-1.7-6.4-6.6c0.2-28.5,0.2-56.9,0-85.4c0-5.4,1.7-7,6.9-6.8
			c11.6,0.3,23.2,0.1,35.9,0.1c0-4.5,0-8.4,0-12.3c0-12.8,0.1-25.6-0.1-38.4c-0.1-4.5,1.2-6.6,6-6.3c4.7,0.3,9.5,0.4,14.2,0
			c5.5-0.5,7.5,1.3,7.4,7.1c-0.4,13.7-0.1,27.5-0.1,41.3c0,2.6,0,5.1,0,8.2c10,0,19.4,0,29.3,0c0.1-2.8,0.3-5.4,0.3-7.9
			c0-23.5,0.2-47-0.1-70.5c-0.1-5.5,1.9-6.7,7-6.7c5.2,0,6.3,2,6.3,6.7c-0.2,28.5-0.2,56.9,0,85.4c0,5.6-2,6.9-7.1,6.7
			C234.6,252.1,227.7,252.4,220.3,252.4z M179.9,327.3c0.8,0.5,1.6,1,2.4,1.5c7.5-8.7,15.2-17.4,22.5-26.3c4.8-5.8,4.6-7.6-2.5-10.1
			c-6.8-2.5-8.2-5.5-4.5-12c3.2-5.7,5.2-12,7.7-18c-0.8-0.5-1.6-0.9-2.4-1.4c-6.9,8-14,15.9-20.7,24c-7.1,8.6-7.1,9,2.8,13.2
			c5,2.1,5.7,4.6,3.5,9.2C185.4,313.9,182.8,320.7,179.9,327.3z"/>
		<path d="M131.2,489.2c6.3,13.8,18.1,19.5,30.7,23.3c28.6,8.6,57.4,8.6,85.9,0c16.5-5,23-10.4,31.4-24.3c6.6,4.9,8,10.9,2.3,16.4
			c-4.8,4.6-10.7,9-16.9,11.4c-38.9,15-78.1,14.9-117,0c-5.8-2.2-11.2-6.2-15.9-10.4C126.6,501.2,125.8,495.6,131.2,489.2z"/>
		<path class="st0" d="M179.9,327.3c2.9-6.6,5.5-13.4,8.6-19.9c2.2-4.6,1.6-7.1-3.5-9.2c-9.9-4.2-9.9-4.6-2.8-13.2
			c6.7-8.2,13.8-16,20.7-24c0.8,0.5,1.6,0.9,2.4,1.4c-2.5,6-4.5,12.4-7.7,18c-3.6,6.4-2.3,9.5,4.5,12c7.1,2.6,7.4,4.3,2.5,10.1
			c-7.3,8.9-15,17.5-22.5,26.3C181.5,328.3,180.7,327.8,179.9,327.3z"/>
	</g>
</g>
</svg>
