<?xml version="1.0" encoding="utf-8"?>
<!-- Generator: Adobe Illustrator 21.0.0, SVG Export Plug-In . SVG Version: 6.00 Build 0)  -->
<svg version="1.1" id="Layer_1" xmlns="http://www.w3.org/2000/svg" xmlns:xlink="http://www.w3.org/1999/xlink" x="0px" y="0px"
	 viewBox="0 0 482 538" style="enable-background:new 0 0 482 538;" xml:space="preserve">
<style type="text/css">
	.st0{fill:#FFFFFF;}
</style>
<g id="DQwLyz_1_">
	<g>
		<path d="M15,508.3c0-165.3,0-330.5,0-495.9c147.9,0,295.7,0,443.8,0c0,165.2,0,330.6,0,495.9C311,508.3,163,508.3,15,508.3z
			 M277,349.2c1.2-0.4,2.5-0.5,3.6-1.2c12.4-7.8,24.7-15.7,37-23.5c0.9-0.6,1.7-1.4,3.1-2.5c-6-4.2-11.6-8.2-17.8-12.6
			c-0.5,1-0.8,1.6-1.2,2.1c-8,11.8-16,23.6-24,35.5C277.2,347.6,277.2,348.5,277,349.2c-0.1,0.3-0.2,0.5-0.3,0.7
			C276.7,349.7,276.9,349.5,277,349.2z M235.6,42.9c-0.5-0.1-1-0.2-1.5-0.2c-13.3,21.8-26.5,43.6-40,65.7c-6-4.3-11.5-8.3-17.1-12.3
			c-5.7-4.1-11.3-8.3-17-12.3c-5.5-3.8-10.6-8.3-17.4-12.2c0.8,8.4,1.4,15.7,2.2,22.9c0.8,7.3,2,14.5,2.5,21.8
			c0.5,7.2,2.5,14.3,2.1,22.2c-15-2.5-29.5-4.9-44.9-7.5c5.8,22.2,11.3,43.4,17,65.3c-11.7-2.8-22.4-6.7-34.5-9.4
			c9.1,22.4,18.5,43.4,27.2,65.2c-11.2,5.8-21.9,11.3-33.1,17.1c20.7,33.8,41,67.1,61.3,100.3c-0.9,1-1.4,1.6-2,2.3
			c-5.6,6.8-5.5,14.3,0.6,20.6c2.2,2.2,4.7,4.4,7.3,6c12.7,7.6,26.9,10.5,41.4,11.1c8.9,0.4,17.9-0.2,26.9-0.9
			c10-0.8,19.6-3.6,28.6-7.9c4.5-2.2,8.7-5,12-8.9c5.4-6.3,5.4-13.6,0-19.9c-1.1-1.2-2.2-2.4-3.4-3.8
			c19.8-36.9,39.5-73.7,59.4-110.9c-11.3-4.8-22.2-9.5-33.3-14.2c4.1-10.2,8.1-19.8,11.7-29.7c3.7-9.9,8.2-19.4,11.6-30.5
			c-14.7,3.2-28.2,7.3-43,10.4c4.8-12.1,9.4-23.2,13.7-34.3c4.2-11.1,9.1-21.9,13.1-34.1c-15.8,2-30.5,4.9-45.6,6.5
			c-0.7-10.4-1.5-20.2-2.1-29.9c-0.6-9.8-1-19.6-1.7-29.4C237.2,62.3,236.4,52.6,235.6,42.9z M122.4,461.5c0,2.7,0,4.7,0,6.9
			c1.6,0.1,2.8,0.2,3.9,0.3c1.2,0,2.5,0,3.9,0c-2.3,4.9-4.7,6.5-8.9,6.3c-4-0.2-6.9-2.6-8.3-6.7c-1.3-3.8-1-7.6,0.5-11.2
			c2-5.1,7.5-7.2,12.4-4.6c1.9,1,3.4,3,5.6,5c1.8-0.1,4.1-0.3,6.8-0.4c-0.1-1.4-0.1-2.3-0.3-3c-1.9-5.5-5.8-9-11.5-9.8
			c-7-1-13.7-0.3-18.5,5.9c-4.1,5.2-4.9,11.3-4,17.5c1.8,13.2,15.1,19.1,26.2,12.1c0.4-0.3,0.9-0.4,1.3-0.6c0.4,0.8,0.7,1.5,1,2.3
			c1.9,0,3.7,0,5.3,0c0.9-5.7,0.8-15.8-0.3-19.8C132.7,461.5,127.8,461.5,122.4,461.5z M69.2,481.6c6,0,11.5-0.1,16.9,0
			c5.2,0.1,9.1-2.3,11.5-6.5c4.2-7.5,4.6-15.4,0.8-23.3c-2.2-4.6-6.1-6.8-11.2-6.9c-4.8-0.1-9.6-0.1-14.4,0c-1.1,0-2.2,0.3-3.6,0.5
			C69.2,457.4,69.2,469.1,69.2,481.6z M64.7,481.4c0-2.6,0-4.7,0-7.3c-6.6,0-12.8,0-19.2,0c0-2.8,0-5,0-7.4
			c5.7-0.9,11.2,0.4,16.4-0.8c0-2.6,0-4.6,0-7.1c-5.7,0-11,0-16.3,0c0-2.3,0-4.2,0-6.1c6.3-0.6,12.2,0.3,18.1-0.6c0-2.6,0-4.7,0-7.1
			c-9.1-0.1-17.9-0.1-26.5,0c-1,6.6-0.8,32.7,0.2,36.5C46.3,481.4,55.3,481.4,64.7,481.4z M144.9,481.3c9.3,0.9,24.3,0.6,28.1-0.7
			c-0.1-1.9-0.2-4-0.3-6.6c-6.7,0-13,0-19.2,0c0-2.8,0-5,0-7.6c3.1,0,5.7,0,8.4,0c2.6,0,5.2-0.2,8.1-0.3c0-2.6,0-4.6,0-7.2
			c-5.7,0-11.1,0-16.6,0c0-2.4,0-4.1,0-6.5c6.2,0,12.1,0,18.2,0c0-2.8,0-5,0-7.1c-7.2-0.9-23.2-0.6-26.7,0.4
			C144.9,457.5,144.9,469.2,144.9,481.3z M356.8,463.3c-0.6-3.5-0.9-7.4-2.1-11c-1.6-5-5.3-7.3-10.6-7.4c-5.8-0.1-9.4,1.9-11.3,7.1
			c-2.9,7.6-3,15.3-0.2,22.9c2.1,5.7,5.4,7.8,11.4,7.7c5.7-0.1,9.5-2.6,11.1-8.2C356.1,470.9,356.3,467.2,356.8,463.3z M259.8,463.9
			c-0.6-3.7-0.8-7.4-1.8-10.8c-1.5-5.3-5.3-7.9-10.7-8.1c-6.1-0.2-9.6,1.9-11.7,7.3c-2.9,7.6-2.9,15.3,0,22.9
			c2.1,5.6,5.5,7.6,11.6,7.4c5.5-0.1,9.2-2.6,10.8-8C259.1,471.2,259.2,467.5,259.8,463.9z M115.1,348.4c0.3-0.4,0.7-0.7,1-1.1
			c-8.3-12.1-16.5-24.3-25.1-36.9c-6.4,5.3-12.3,10.2-18.9,15.7C87,333.9,101,341.2,115.1,348.4z M215.7,457.8
			c0.5,8.1-0.2,15.8,0.5,23.5c3.1,0,5.5,0,8.2,0c0-12.1,0.1-23.9,0-35.9c-2.6,0-4.5,0-5.8,0c-1.6,2-2.5,4-4.1,4.9
			c-1.7,1-4,1-6.6,1.6c0.1,1.9,0.2,3.6,0.3,5.4C210.8,457.4,212.9,457.6,215.7,457.8z M321.4,481.3c-0.2-12.1,0.3-23.9-0.3-36
			c-2.3,0-4.1,0-5.5,0c-1.6,1.9-2.6,4-4.3,5c-1.7,1-4,1-6.5,1.5c0.1,2,0.3,3.7,0.4,5.4c2.9,0.3,5.1,0.4,7.9,0.7c0,8,0,15.5,0,23.4
			C316,481.3,318.4,481.3,321.4,481.3z M277.6,481.4c4.6-12.5,9.6-24.4,13.8-37.2c-1.7-0.1-2.7-0.3-3.6-0.3c-1,0-1.9,0.3-3.1,0.4
			c-4.5,12.2-9.5,24.3-13.7,37C273.4,481.4,275.2,481.4,277.6,481.4z M424.1,311.3c-3.2,0-6.1,0-9,0c0,3.2,0,6.1,0,9
			c3.3,0,6.1,0,9,0C424.1,317,424.1,314.2,424.1,311.3z M403,310.4c0-3.2,0-6,0-9.1c-3.2,0-6.1,0-9,0c0,3.3,0,6.1,0,9.1
			C397.2,310.4,400,310.4,403,310.4z M427.9,292.2c0,3.4,0,6.1,0,9.1c3.2,0,6.1,0,9,0c0-3.2,0-6.1,0-9.1
			C433.8,292.2,431,292.2,427.9,292.2z M419,294.4c0-3.4,0-6.2,0-9.1c-3.2,0-6.1,0-9,0c0,3.3,0,6.1,0,9.1
			C413.2,294.4,416,294.4,419,294.4z M393.9,285.3c3.2,0,6,0,9.1,0c0-3.2,0-6.1,0-9c-3.3,0-6.1,0-9.1,0
			C393.9,279.5,393.9,282.3,393.9,285.3z M324,199.2c0,3.4,0,6.2,0,9.1c3.2,0,6.1,0,9,0c0-3.2,0-6.1,0-9.1
			C329.8,199.2,327,199.2,324,199.2z M302.9,212.3c3.4,0,6.1,0,9.1,0c0-3.2,0-6.1,0-9c-3.2,0-6.1,0-9.1,0
			C302.9,206.4,302.9,209.2,302.9,212.3z M343.9,217.3c3.4,0,6.1,0,9.1,0c0-3.2,0-6.1,0-9c-3.2,0-6.1,0-9.1,0
			C343.9,211.5,343.9,214.2,343.9,217.3z M320.1,217.2c-3.2,0-6,0-9.1,0c0,3.2,0,6.1,0,9c3.3,0,6.1,0,9.1,0
			C320.1,223,320.1,220.3,320.1,217.2z M361.9,226.3c3.2,0,6.1,0,9,0c0-3.2,0-6.1,0-9c-3.3,0-6.1,0-9,0
			C361.9,220.5,361.9,223.3,361.9,226.3z M300,230.3c0-3.2,0-6,0-9.1c-3.2,0-6.1,0-9,0c0,3.3,0,6.1,0,9.1
			C294.3,230.3,297,230.3,300,230.3z M328.9,230.3c3.2,0,6.1,0,9,0c0-3.2,0-6.1,0-9c-3.3,0-6.1,0-9,0
			C328.9,224.5,328.9,227.3,328.9,230.3z M358.1,230.2c-3.2,0-6,0-9.1,0c0,3.2,0,6.1,0,9c3.3,0,6.1,0,9.1,0
			C358.1,236,358.1,233.3,358.1,230.2z M303.9,242.3c3.2,0,6,0,9.1,0c0-3.2,0-6.1,0-9c-3.3,0-6.1,0-9.1,0
			C303.9,236.5,303.9,239.3,303.9,242.3z M380,235.2c0,3.4,0,6.2,0,9.1c3.2,0,6.1,0,9,0c0-3.2,0-6.1,0-9.1
			C385.8,235.2,383,235.2,380,235.2z M361.9,250.3c3.4,0,6.1,0,9.1,0c0-3.2,0-6.1,0-9c-3.2,0-6.1,0-9.1,0
			C361.9,244.4,361.9,247.2,361.9,250.3z M389,254.2c0,3.2,0,6.1,0,9c3.2,0,6.1,0,9,0c0-3.3,0-6.1,0-9
			C394.7,254.2,392,254.2,389,254.2z M380,268.3c0-3.2,0-6.1,0-9c-3.2,0-6.1,0-9,0c0,3.3,0,6.1,0,9C374.3,268.3,377,268.3,380,268.3
			z M409.9,268.3c3.4,0,6.1,0,9.1,0c0-3.2,0-6.1,0-9c-3.2,0-6.1,0-9.1,0C409.9,262.5,409.9,265.2,409.9,268.3z M186.9,463.3
			c0-3,0-5.4,0-7.9c-2.8,0-5.1,0-7.7,0c0,2.9,0,5.4,0,7.9C182,463.3,184.3,463.3,186.9,463.3z M179.1,473.4c0,2.9,0,5.3,0,7.8
			c2.9,0,5.3,0,8.2,0c-0.1-2.8-0.2-5.2-0.4-7.8C184.2,473.4,182,473.4,179.1,473.4z"/>
		<path class="st0" d="M235.6,42.9c0.8,9.7,1.6,19.4,2.3,29.1c0.7,9.8,1.1,19.6,1.7,29.4c0.6,9.8,1.4,19.5,2.1,29.9
			c15.1-1.6,29.8-4.5,45.6-6.5c-4,12.2-8.9,23-13.1,34.1c-4.2,11.2-8.8,22.2-13.7,34.3c14.7-3.1,28.3-7.2,43-10.4
			c-3.3,11-7.9,20.6-11.6,30.5c-3.6,9.8-7.7,19.5-11.7,29.7c11.1,4.7,22,9.4,33.3,14.2c-19.9,37.2-39.7,74-59.4,110.9
			c1.2,1.4,2.4,2.6,3.4,3.8c5.4,6.3,5.4,13.7,0,19.9c-3.3,3.9-7.4,6.7-12,8.9c-9.1,4.3-18.6,7.2-28.6,7.9c-8.9,0.7-18,1.3-26.9,0.9
			c-14.5-0.7-28.7-3.5-41.4-11.1c-2.7-1.6-5.2-3.7-7.3-6c-6.1-6.3-6.2-13.8-0.6-20.6c0.5-0.6,1.1-1.3,2-2.3
			c-20.3-33.2-40.7-66.5-61.3-100.3c11.2-5.8,21.9-11.3,33.1-17.1c-8.7-21.8-18.1-42.8-27.2-65.2c12.1,2.7,22.8,6.6,34.5,9.4
			c-5.7-21.9-11.2-43.1-17-65.3c15.4,2.6,29.9,5,44.9,7.5c0.4-7.9-1.6-15-2.1-22.2c-0.5-7.3-1.7-14.5-2.5-21.8
			c-0.8-7.2-1.4-14.4-2.2-22.9c6.8,3.9,11.9,8.4,17.4,12.2c5.7,4,11.3,8.2,17,12.3c5.5,4,11,8,17.1,12.3
			c13.4-22.1,26.7-43.9,40-65.7C234.6,42.7,235.1,42.8,235.6,42.9z M219.2,140.8c0,20.1,0,39.7,0,59.5c-7,0-13.5,0-20.5,0
			c0-4.7,0-9,0-13.2c0-4.5,0-9,0-13.5c0-4.2-0.1-8.5-0.1-12.5c-6.7,0-12.8,0-19.3,0c0,13.3,0,26.2,0,39.7c-10.1,0-19.9,0-29.5,0
			c0,23.4,0,46.1,0,68.9c3.1,0,5.8,0,9,0c0-6.9,0-13.5,0-20.1c0-6.5,0-13,0-19.5c0-6.6-0.2-13.2,0.1-19.8c3.8,0,6.9,0,10.6,0
			c0,53.3,0,106.3,0,159.5c3.4,0,6.1,0,9.3,0c0-15,0-29.8,0-44.6c0.1-14.9-0.3-29.8,0.2-45.1c3.9,0,7.2,0,10.5,0
			c3.2,0,6.5,0.2,9.8,0.2c0.2,3.6,0.3,6.5,0.4,9.6c6.7,0.5,13.2-0.3,19.9,0.5c0,16.8,0,33.1,0,49.4c3.2,0,6,0,8.7,0
			c0.9-7.3,0.6-55.4-0.4-59.3c-6.1,0-12.4,0-18.6,0c-1-7-0.7-66.6,0.4-70.5c6.1,0,12.4,0,18.6,0c1-7.4,0.7-65.6-0.3-69
			C225.2,140.8,222.6,140.8,219.2,140.8z M143.5,381.3c0.7,4.3,2.9,7.1,6.2,9.2c2.7,1.7,5.4,3.3,8.2,4.6c14,6.2,28.9,7.7,43.9,7.6
			c7.7-0.1,15.5-1.5,23.2-2.8c8.2-1.5,16.1-4.2,23-9.1c3.3-2.3,5.8-5,6.4-9.3c-0.8-2.4-1.4-5.1-4.4-6.8c-2.8,8.5-9.2,12.8-16.7,15.8
			c-2.9,1.2-5.9,2.2-8.9,3c-16.5,4.4-33.3,4.5-49.8,0.8c-11.4-2.6-22.7-6.2-28.6-18.8C144.9,378.1,144.1,379.9,143.5,381.3z
			 M285.2,216.7c0-2.6,0-5.3,0-7.8c-2.8,0-5.2,0-7.6,0c0,2.8,0,5.2,0,7.8C280.3,216.7,282.6,216.7,285.2,216.7z M263.5,213.9
			c-2.9,0-5.4,0-7.9,0c0,2.7,0,5.1,0,7.6c2.8,0,5.3,0,7.9,0C263.5,218.9,263.5,216.6,263.5,213.9z M235.6,230.8c0,2.9,0,5.3,0,8
			c2.8,0.1,5.4,0.6,7.7-0.3c0-2.7,0-5.1,0-7.7C240.7,230.8,238.4,230.8,235.6,230.8z M273.4,231c-2.9,0-5.3,0-7.8,0
			c0,2.7,0,5.2,0,7.7c2.7,0,5.1,0,7.8,0C273.4,236,273.4,233.6,273.4,231z M245.7,245.9c0,2.8,0,5.3,0,7.7c2.8,0,5.2,0,7.6,0
			c0-2.8,0-5.2,0-7.7C250.6,245.9,248.2,245.9,245.7,245.9z M233.5,251c-2.6,0-5.3,0-7.8,0c0,2.8,0,5.2,0,7.6c2.8,0,5.2,0,7.8,0
			C233.5,256,233.5,253.7,233.5,251z"/>
		<path class="st0" d="M122.4,461.5c5.4,0,10.3,0,15.1,0c1.1,4,1.2,14.1,0.3,19.8c-1.7,0-3.4,0-5.3,0c-0.3-0.7-0.7-1.5-1-2.3
			c-0.5,0.2-0.9,0.3-1.3,0.6c-11.1,7.1-24.4,1.1-26.2-12.1c-0.9-6.2-0.1-12.3,4-17.5c4.8-6.2,11.5-6.9,18.5-5.9
			c5.7,0.8,9.6,4.3,11.5,9.8c0.3,0.7,0.2,1.6,0.3,3c-2.6,0.2-5,0.3-6.8,0.4c-2.2-2-3.6-4-5.6-5c-4.9-2.6-10.4-0.4-12.4,4.6
			c-1.4,3.6-1.7,7.4-0.5,11.2c1.4,4.1,4.3,6.5,8.3,6.7c4.2,0.2,6.6-1.4,8.9-6.3c-1.4,0-2.7,0-3.9,0c-1.2,0-2.3-0.1-3.9-0.3
			C122.4,466.2,122.4,464.2,122.4,461.5z"/>
		<path class="st0" d="M69.2,481.6c0-12.5,0-24.2,0-36.2c1.4-0.2,2.5-0.5,3.6-0.5c4.8,0,9.6-0.1,14.4,0c5.1,0.1,9,2.4,11.2,6.9
			c3.9,7.8,3.4,15.8-0.8,23.3c-2.4,4.3-6.3,6.7-11.5,6.5C80.7,481.5,75.2,481.6,69.2,481.6z M78.4,452.7c0,7.1,0,14,0,21.2
			c1.7,0.1,3.2,0.3,4.6,0.3c1.5,0,3-0.2,4.2-0.2c6.2-5.4,6.5-16.4,0.7-21.2C84.9,452.7,81.8,452.7,78.4,452.7z"/>
		<path class="st0" d="M64.7,481.4c-9.5,0-18.4,0-27.3,0c-1-3.8-1.2-29.9-0.2-36.5c8.6,0,17.3-0.1,26.5,0c0,2.4,0,4.5,0,7.1
			c-5.9,0.9-11.9,0-18.1,0.6c0,1.9,0,3.8,0,6.1c5.3,0,10.6,0,16.3,0c0,2.5,0,4.5,0,7.1c-5.2,1.3-10.7-0.1-16.4,0.8
			c0,2.3,0,4.5,0,7.4c6.4,0,12.6,0,19.2,0C64.7,476.7,64.7,478.8,64.7,481.4z"/>
		<path class="st0" d="M144.9,481.3c0-12,0-23.8,0-35.5c3.5-1,19.5-1.3,26.7-0.4c0,2.1,0,4.3,0,7.1c-6.1,0-12,0-18.2,0
			c0,2.4,0,4.1,0,6.5c5.4,0,10.8,0,16.6,0c0,2.6,0,4.7,0,7.2c-2.9,0.1-5.5,0.2-8.1,0.3c-2.6,0-5.3,0-8.4,0c0,2.5,0,4.7,0,7.6
			c6.2,0,12.5,0,19.2,0c0.1,2.6,0.2,4.7,0.3,6.6C169.2,481.8,154.2,482.2,144.9,481.3z"/>
		<path class="st0" d="M356.8,463.3c-0.6,3.9-0.7,7.6-1.7,11.1c-1.6,5.6-5.4,8.1-11.1,8.2c-6,0.1-9.3-2-11.4-7.7
			c-2.8-7.6-2.7-15.3,0.2-22.9c2-5.2,5.5-7.2,11.3-7.1c5.4,0.1,9,2.4,10.6,7.4C355.9,455.9,356.2,459.8,356.8,463.3z M340.7,453.3
			c-1.9,7.3-2.1,14.1,0.2,21c1.1,0.6,2.1,1.1,2.9,1.6c3.1-0.8,3.8-3,3.9-5.4c0.2-4.7,0.1-9.3,0-14c0-2.4-1.2-4.1-3.9-4.9
			C342.9,452.1,341.9,452.6,340.7,453.3z"/>
		<path class="st0" d="M259.8,463.9c-0.6,3.6-0.8,7.3-1.8,10.8c-1.6,5.3-5.3,7.8-10.8,8c-6.1,0.2-9.5-1.9-11.6-7.4
			c-2.8-7.6-2.8-15.3,0-22.9c2.1-5.4,5.6-7.5,11.7-7.3c5.4,0.2,9.1,2.8,10.7,8.1C259,456.5,259.3,460.2,259.8,463.9z M243.7,453.4
			c-2,7-2.1,13.8,0.1,20.9c1.1,0.6,2.2,1.1,3.1,1.6c2.6-0.8,3.5-2.7,3.6-4.7c0.2-5,0.3-10,0-15c-0.1-1.4-1.5-2.7-2.4-4
			c-0.2-0.3-0.9-0.4-1.4-0.6C245.7,452.2,244.7,452.8,243.7,453.4z"/>
		<path class="st0" d="M115.1,348.4c-14-7.3-28.1-14.5-43-22.2c6.6-5.5,12.5-10.4,18.9-15.7c8.6,12.6,16.9,24.8,25.1,36.9
			C115.7,347.7,115.4,348.1,115.1,348.4z"/>
		<path class="st0" d="M277,349.3c0.2-0.8,0.1-1.7,0.5-2.3c8-11.8,16-23.7,24-35.5c0.4-0.6,0.7-1.2,1.2-2.1
			c6.2,4.4,11.8,8.3,17.8,12.6c-1.4,1.1-2.1,1.9-3.1,2.5c-12.3,7.9-24.6,15.7-37,23.5C279.5,348.7,278.2,348.8,277,349.3L277,349.3z
			"/>
		<path class="st0" d="M215.7,457.8c-2.8-0.2-4.9-0.3-7.6-0.5c-0.1-1.8-0.2-3.5-0.3-5.4c2.5-0.6,4.8-0.6,6.6-1.6
			c1.6-0.9,2.5-2.9,4.1-4.9c1.4,0,3.3,0,5.8,0c0.1,12,0,23.7,0,35.9c-2.7,0-5.1,0-8.2,0C215.5,473.6,216.2,465.8,215.7,457.8z"/>
		<path class="st0" d="M321.4,481.3c-3,0-5.4,0-8.3,0c0-7.9,0-15.5,0-23.4c-2.7-0.2-5-0.4-7.9-0.7c-0.1-1.7-0.2-3.4-0.4-5.4
			c2.5-0.5,4.8-0.5,6.5-1.5c1.7-1,2.7-3.1,4.3-5c1.4,0,3.2,0,5.5,0C321.7,457.4,321.2,469.2,321.4,481.3z"/>
		<path class="st0" d="M277.6,481.4c-2.3,0-4.1,0-6.6,0c4.3-12.8,9.2-24.8,13.7-37c1.2-0.2,2.1-0.4,3.1-0.4c1,0,1.9,0.1,3.6,0.3
			C287.2,457,282.1,468.9,277.6,481.4z"/>
		<path class="st0" d="M424.1,311.3c0,3,0,5.8,0,9c-2.9,0-5.8,0-9,0c0-2.9,0-5.7,0-9C418,311.3,420.9,311.3,424.1,311.3z"/>
		<path class="st0" d="M403,310.4c-3.1,0-5.8,0-9,0c0-2.9,0-5.8,0-9.1c2.9,0,5.8,0,9,0C403,304.3,403,307.2,403,310.4z"/>
		<path class="st0" d="M427.9,292.2c3.1,0,5.8,0,9,0c0,3,0,5.9,0,9.1c-2.9,0-5.8,0-9,0C427.9,298.3,427.9,295.6,427.9,292.2z"/>
		<path class="st0" d="M419,294.4c-3.1,0-5.8,0-9,0c0-3,0-5.8,0-9.1c2.9,0,5.8,0,9,0C419,288.2,419,291,419,294.4z"/>
		<path class="st0" d="M393.9,285.3c0-3.1,0-5.8,0-9c2.9,0,5.8,0,9.1,0c0,2.9,0,5.8,0,9C399.9,285.3,397.1,285.3,393.9,285.3z"/>
		<path class="st0" d="M324,199.2c3.1,0,5.8,0,9,0c0,3,0,5.8,0,9.1c-2.9,0-5.8,0-9,0C324,205.3,324,202.6,324,199.2z"/>
		<path class="st0" d="M302.9,212.3c0-3.1,0-5.9,0-9c3,0,5.9,0,9.1,0c0,3,0,5.9,0,9C309,212.3,306.3,212.3,302.9,212.3z"/>
		<path class="st0" d="M343.9,217.3c0-3.1,0-5.9,0-9c3,0,5.9,0,9.1,0c0,3,0,5.8,0,9C350,217.3,347.3,217.3,343.9,217.3z"/>
		<path class="st0" d="M320.1,217.2c0,3.1,0,5.8,0,9c-2.9,0-5.8,0-9.1,0c0-2.9,0-5.8,0-9C314,217.2,316.9,217.2,320.1,217.2z"/>
		<path class="st0" d="M361.9,226.3c0-3,0-5.8,0-9c2.9,0,5.8,0,9,0c0,2.9,0,5.7,0,9C368,226.3,365.1,226.3,361.9,226.3z"/>
		<path class="st0" d="M300,230.3c-3,0-5.8,0-9,0c0-2.9,0-5.8,0-9.1c2.9,0,5.7,0,9,0C300,224.3,300,227.2,300,230.3z"/>
		<path class="st0" d="M328.9,230.3c0-3,0-5.8,0-9c2.9,0,5.8,0,9,0c0,2.9,0,5.7,0,9C335,230.3,332.1,230.3,328.9,230.3z"/>
		<path class="st0" d="M358.1,230.2c0,3.1,0,5.8,0,9c-2.9,0-5.8,0-9.1,0c0-2.9,0-5.8,0-9C352,230.2,354.9,230.2,358.1,230.2z"/>
		<path class="st0" d="M303.9,242.3c0-3,0-5.8,0-9c2.9,0,5.8,0,9.1,0c0,2.9,0,5.7,0,9C310,242.3,307.1,242.3,303.9,242.3z"/>
		<path class="st0" d="M380,235.2c3.1,0,5.8,0,9,0c0,3,0,5.8,0,9.1c-2.9,0-5.8,0-9,0C380,241.3,380,238.6,380,235.2z"/>
		<path class="st0" d="M361.9,250.3c0-3.1,0-5.9,0-9c3,0,5.9,0,9.1,0c0,3,0,5.9,0,9C368,250.3,365.3,250.3,361.9,250.3z"/>
		<path class="st0" d="M389,254.2c3,0,5.8,0,9,0c0,2.9,0,5.8,0,9c-2.9,0-5.7,0-9,0C389,260.3,389,257.4,389,254.2z"/>
		<path class="st0" d="M380,268.3c-3,0-5.8,0-9,0c0-2.9,0-5.8,0-9c2.9,0,5.7,0,9,0C380,262.3,380,265.2,380,268.3z"/>
		<path class="st0" d="M409.9,268.3c0-3.1,0-5.8,0-9c3,0,5.9,0,9.1,0c0,2.9,0,5.8,0,9C416.1,268.3,413.3,268.3,409.9,268.3z"/>
		<path class="st0" d="M186.9,463.3c-2.7,0-4.9,0-7.7,0c0-2.6,0-5.1,0-7.9c2.6,0,4.9,0,7.7,0C186.9,458,186.9,460.3,186.9,463.3z"/>
		<path class="st0" d="M179.1,473.4c2.9,0,5.1,0,7.9,0c0.1,2.6,0.2,5,0.4,7.8c-2.9,0-5.4,0-8.2,0
			C179.1,478.7,179.1,476.3,179.1,473.4z"/>
		<path class="st0" d="M277,349.2c-0.1,0.2-0.2,0.5-0.3,0.7C276.8,349.7,276.9,349.5,277,349.2C277,349.3,277,349.2,277,349.2z"/>
		<path d="M219.2,140.8c3.4,0,6.1,0,8.7,0c1,3.4,1.2,61.6,0.3,69c-6.2,0-12.5,0-18.6,0c-1.1,3.9-1.4,63.5-0.4,70.5
			c6.2,0,12.4,0,18.6,0c1.1,3.9,1.4,52,0.4,59.3c-2.7,0-5.5,0-8.7,0c0-16.3,0-32.6,0-49.4c-6.8-0.8-13.2,0-19.9-0.5
			c-0.1-3.1-0.3-6-0.4-9.6c-3.3-0.1-6.6-0.2-9.8-0.2c-3.3,0-6.6,0-10.5,0c-0.5,15.3-0.2,30.2-0.2,45.1c-0.1,14.8,0,29.6,0,44.6
			c-3.2,0-5.9,0-9.3,0c0-53.1,0-106.2,0-159.5c-3.7,0-6.8,0-10.6,0c-0.3,6.6-0.1,13.2-0.1,19.8c0,6.5,0,13,0,19.5
			c0,6.6,0,13.3,0,20.1c-3.2,0-5.9,0-9,0c0-22.8,0-45.6,0-68.9c9.6,0,19.3,0,29.5,0c0-13.5,0-26.5,0-39.7c6.5,0,12.6,0,19.3,0
			c0,4,0.1,8.3,0.1,12.5c0,4.5,0,9,0,13.5c0,4.3,0,8.6,0,13.2c7,0,13.5,0,20.5,0C219.2,180.5,219.2,160.9,219.2,140.8z M180,210.2
			c0,18.2,0,36,0,54.1c3.2,0,6.1,0,9.3,0c0.2-9.1-0.1-17.8,0.2-26.4c3.3-0.2,5.9-0.3,8.4-0.5c1-6.7,0.7-23.6-0.3-27.2
			C191.8,210.2,186,210.2,180,210.2z"/>
		<path d="M143.5,381.3c0.6-1.4,1.4-3.3,2.5-5.8c5.8,12.6,17.1,16.3,28.6,18.8c16.6,3.7,33.3,3.6,49.8-0.8c3-0.8,6-1.9,8.9-3
			c7.4-3,13.8-7.3,16.7-15.8c3,1.6,3.7,4.4,4.4,6.8c-0.6,4.3-3.2,7-6.4,9.3c-7,4.8-14.8,7.6-23,9.1c-7.7,1.4-15.5,2.7-23.2,2.8
			c-15,0.1-29.9-1.4-43.9-7.6c-2.9-1.3-5.6-2.9-8.2-4.6C146.4,388.5,144.2,385.7,143.5,381.3z"/>
		<path d="M285.2,216.7c-2.7,0-5,0-7.6,0c0-2.6,0-5,0-7.8c2.4,0,4.8,0,7.6,0C285.2,211.4,285.2,214.1,285.2,216.7z"/>
		<path d="M263.5,213.9c0,2.7,0,5,0,7.6c-2.6,0-5.1,0-7.9,0c0-2.5,0-4.9,0-7.6C258.1,213.9,260.6,213.9,263.5,213.9z"/>
		<path d="M235.6,230.8c2.7,0,5,0,7.7,0c0,2.5,0,5,0,7.7c-2.3,0.9-4.9,0.4-7.7,0.3C235.6,236.1,235.6,233.6,235.6,230.8z"/>
		<path d="M273.4,231c0,2.7,0,5.1,0,7.7c-2.7,0-5.1,0-7.8,0c0-2.6,0-5,0-7.7C268.1,231,270.5,231,273.4,231z"/>
		<path d="M245.7,245.9c2.5,0,4.9,0,7.6,0c0,2.5,0,4.9,0,7.7c-2.4,0-4.8,0-7.6,0C245.7,251.2,245.7,248.7,245.7,245.9z"/>
		<path d="M233.5,251c0,2.7,0,5,0,7.6c-2.6,0-5,0-7.8,0c0-2.3,0-4.8,0-7.6C228.2,251,230.8,251,233.5,251z"/>
		<path d="M78.4,452.7c3.4,0,6.5,0,9.5,0c5.8,4.8,5.5,15.8-0.7,21.2c-1.2,0.1-2.7,0.2-4.2,0.2c-1.5,0-2.9-0.2-4.6-0.3
			C78.4,466.7,78.4,459.8,78.4,452.7z"/>
		<path d="M340.7,453.3c1.2-0.7,2.2-1.2,3-1.7c2.7,0.7,3.8,2.5,3.9,4.9c0.1,4.7,0.1,9.3,0,14c-0.1,2.4-0.8,4.6-3.9,5.4
			c-0.8-0.4-1.8-1-2.9-1.6C338.6,467.4,338.8,460.6,340.7,453.3z"/>
		<path d="M243.7,453.4c1-0.6,2-1.2,2.9-1.8c0.6,0.2,1.2,0.2,1.4,0.6c0.9,1.3,2.4,2.6,2.4,4c0.3,5,0.2,10,0,15c-0.1,2-1,3.9-3.6,4.7
			c-0.9-0.4-2-1-3.1-1.6C241.7,467.2,241.7,460.4,243.7,453.4z"/>
		<path class="st0" d="M180,210.2c6.1,0,11.8,0,17.6,0c1,3.6,1.3,20.5,0.3,27.2c-2.5,0.1-5.1,0.3-8.4,0.5
			c-0.3,8.6,0.1,17.4-0.2,26.4c-3.2,0-6.1,0-9.3,0C180,246.2,180,228.3,180,210.2z"/>
	</g>
</g>
</svg>
