<?xml version="1.0" encoding="utf-8"?>
<!-- Generator: Adobe Illustrator 21.0.0, SVG Export Plug-In . SVG Version: 6.00 Build 0)  -->
<svg version="1.1" id="Layer_1" xmlns="http://www.w3.org/2000/svg" xmlns:xlink="http://www.w3.org/1999/xlink" x="0px" y="0px"
	 viewBox="0 0 2834.6 841.9" style="enable-background:new 0 0 2834.6 841.9;" xml:space="preserve">
<style type="text/css">
	.st0{fill:#010101;}
	.st1{stroke:#000000;stroke-miterlimit:10;}
</style>
<g>
	<path class="st0" d="M222,496.9h-81.4v183.5H32.9V160.3h192.9c104.4,0,186.1,56.7,186.1,167C412,441.7,330.6,496.9,222,496.9z
		 M216.4,261.8h-75.9V397h76.5c42.5,0,86.3-18.8,86.3-67.5C303.3,279.3,260.9,261.8,216.4,261.8z"/>
	<path class="st0" d="M864.7,152.2c149.8,0,268.8,116.7,268.8,266.2c0,150.8-121.6,269.8-271.1,269.8
		c-149.8,0-269.1-117.1-269.1-267.2C593.2,271.2,715.2,152.2,864.7,152.2z M863.7,584.1c89.5,0,159.9-74.6,159.9-164.1
		c0-89.8-70.4-163.1-159.9-163.1c-89.8,0-160.2,73.3-160.2,163.1S773.9,584.1,863.7,584.1z"/>
	<path class="st0" d="M1463.3,160.3v520.1h-107.7V160.3H1463.3z"/>
	<path class="st0" d="M1823.8,680.4h-106.4V160.3h125.2l223.4,351.8V160.3h106.4v520.1h-121.9l-226.7-357.7V680.4z"/>
	<path class="st0" d="M2535.9,680.4v-416h-156V160.3h419.3v104.1h-156v416H2535.9z"/>
</g>
<rect x="13.1" y="6.5" class="st1" width="84.9" height="44.7"/>
</svg>
