<?xml version="1.0" encoding="utf-8"?>
<!-- Generator: Adobe Illustrator 21.0.0, SVG Export Plug-In . SVG Version: 6.00 Build 0)  -->
<svg version="1.1" id="Layer_1" xmlns="http://www.w3.org/2000/svg" xmlns:xlink="http://www.w3.org/1999/xlink" x="0px" y="0px"
	 viewBox="0 0 722.8 113.4" style="enable-background:new 0 0 722.8 113.4;" xml:space="preserve">
<style type="text/css">
	.st0{fill:#010101;}
</style>
<polygon class="st0" points="82.8,37.3 75.9,30.4 58.3,48.1 40.6,30.4 33.7,37.3 51.3,55 33.7,72.6 40.6,79.5 58.3,61.9 75.9,79.5 
	82.8,72.6 65.2,55 "/>
<g>
	<path d="M165.4,64.1h-12.6v26.1h-11.1V19.7h25c17.7,0,24.7,11,24.7,21.9C191.4,53.8,182.4,64.1,165.4,64.1z M165.7,29.9h-12.9v24
		h12.9c10.7,0,14.4-6.5,14.4-12C180.1,36.5,177.3,29.9,165.7,29.9z"/>
	<path d="M221.8,41.1c13.8,0,25.2,10.6,25.2,24.7c0,14.2-11.2,25.1-25.3,25.1c-13.9,0-25.4-10.8-25.4-24.9
		C196.3,51.8,207.8,41.1,221.8,41.1z M221.8,81.3c8.7,0,14.3-6.9,14.3-15.2c0-8.3-5.7-15.2-14.4-15.2s-14.4,6.7-14.4,15
		C207.3,74.1,213.1,81.3,221.8,81.3z"/>
	<path d="M263.4,19.4c3.9,0,7.1,3.2,7.1,7.1s-3.2,7-7.1,7c-3.9,0-7-3.1-7-7S259.5,19.4,263.4,19.4z M268.8,90.2v-48h-10.7v48H268.8z
		"/>
	<path d="M305,51.3c-6.8,0-11.1,4.9-11.1,12.1v26.8h-10.7v-48h10.5v6.5c4.6-6.2,10.9-7.5,14.7-7.5c12.2,0,18,8.5,18,19.5v29.6h-10.7
		V63.3C315.5,56.4,312.3,51.3,305,51.3z"/>
	<path d="M354.6,51.8v22.9c0,4.1,2.1,6.2,7.4,6.2c1,0,2.3-0.1,4.4-0.4v9.1c-2.9,0.9-6.4,1-7.7,1c-9.4,0-14.8-3.6-14.8-15.3V51.8
		h-9.3v-9.6h9.3V27.2h10.7v14.9h12.2v9.6H354.6z"/>
	<path d="M398.3,70.4l10.7-2.9c1.5,8.2,7.2,13.5,15.6,13.5c7,0,12.7-4,12.7-9.9c0-5.8-4.4-9.1-10.4-10.3l-8.7-1.8
		c-11.6-2.3-17.8-10-17.8-19.2c0-11.6,10.6-21.2,23.2-21.2c16,0,22.5,9.7,24,17.3l-10.3,3.3c-1.2-5-6-10.6-13.4-10.6
		c-6.9,0-12.1,4.8-12.1,10.2c0,4,3.2,8.3,8.9,9.4l8.9,1.8c12.6,2.5,19.2,10,19.2,20.4c0,10.2-8.7,20.6-24.4,20.6
		C408,90.9,399.4,80.3,398.3,70.4z"/>
	<path d="M474.8,51.8v22.9c0,4.1,2.1,6.2,7.4,6.2c1,0,2.3-0.1,4.4-0.4v9.1c-2.9,0.9-6.4,1-7.7,1c-9.4,0-14.8-3.6-14.8-15.3V51.8
		h-9.3v-9.6h9.3V27.2h10.7v14.9H487v9.6H474.8z"/>
	<path d="M519,81c6.8,0,11.1-4.9,11.1-12.2V42.1h10.7v48h-10.5v-6.5c-4.6,6.2-10.9,7.5-14.7,7.5c-12,0-18-8.6-18-19.5V42.1h10.7V69
		C508.4,75.8,511.6,81,519,81z"/>
	<path d="M575.8,41.2c4.2,0,12,2.1,15.6,7.8V16.9h10.7v73.3h-10.5v-7.5c-3.8,6.2-12.3,8.3-16.1,8.3c-13.9,0-23.6-11.9-23.6-24.8
		C551.9,53.9,560.8,41.2,575.8,41.2z M577.1,50.9c-8.7,0-14.4,6.9-14.4,15.2c0,8.3,5.8,15.1,14.4,15.1c8.7,0,14.4-6.9,14.4-15.1
		C591.5,57.7,585.8,50.9,577.1,50.9z"/>
	<path d="M621.7,19.4c3.9,0,7.1,3.2,7.1,7.1s-3.2,7-7.1,7c-3.9,0-7-3.1-7-7S617.8,19.4,621.7,19.4z M627.1,90.2v-48h-10.7v48H627.1z
		"/>
	<path d="M663.6,41.1c13.8,0,25.2,10.6,25.2,24.7c0,14.2-11.2,25.1-25.3,25.1c-13.9,0-25.4-10.8-25.4-24.9
		C638.2,51.8,649.7,41.1,663.6,41.1z M663.6,81.3c8.7,0,14.3-6.9,14.3-15.2c0-8.3-5.7-15.2-14.4-15.2s-14.4,6.7-14.4,15
		C649.1,74.1,654.9,81.3,663.6,81.3z"/>
</g>
<rect x="4.5" y="49.3" class="st0" width="5.5" height="11.3"/>
</svg>
