<?xml version="1.0" encoding="utf-8"?>
<!-- Generator: Adobe Illustrator 21.0.0, SVG Export Plug-In . SVG Version: 6.00 Build 0)  -->
<svg version="1.1" id="Layer_1" xmlns="http://www.w3.org/2000/svg" xmlns:xlink="http://www.w3.org/1999/xlink" x="0px" y="0px"
	 viewBox="0 0 595.3 419.5" style="enable-background:new 0 0 595.3 419.5;" xml:space="preserve">
<style type="text/css">
	.st0{fill:none;stroke:#010101;stroke-linejoin:round;stroke-miterlimit:10;}
	.st1{fill:none;stroke:#010101;stroke-miterlimit:8;}
	.st2{fill:none;stroke:#010101;stroke-width:1;stroke-linejoin:round;stroke-miterlimit:10;}
</style>
<g>
	<rect x="80.4" y="47.9" class="st0" width="96.4" height="96.5"/>
	<polygon class="st0" points="255.6,140.1 312.1,44.8 368.6,140.1 	"/>
	<ellipse class="st0" cx="475.5" cy="92.7" rx="49.3" ry="47.6"/>
	<rect x="55" y="319.3" class="st0" width="152.5" height="46.3"/>
	<polygon class="st1" points="428.1,296.3 476.2,296.3 491.1,248.2 506,296.3 554.1,296.3 515.2,326.1 530,374.2 491.1,344.4 
		452.2,374.2 467,326.1 	"/>
	<path class="st0" d="M127.4,180.7c20.4-57,99.7,0,0,73.3C27.7,180.7,107,123.7,127.4,180.7z"/>
	<polygon class="st0" points="249.9,224.4 273.9,176.4 337.3,176.4 361.2,224.4 337.3,272.3 273.9,272.3 	"/>
	<path class="st2" d="M424.2,228.9c0.3-29.1,24.1-52.6,53.2-52.4c28.9,0.1,52.1,23.4,52.2,52.2l-52.4,0.5c0.1-0.2,0.1-0.4-0.1-0.4
		c-0.2,0-0.5,0.2-0.6,0.4L424.2,228.9z"/>
	<rect x="333.2" y="312.6" class="st0" width="52.9" height="52.8"/>
	<polygon class="st0" points="241,362.5 272,310.3 302.9,362.5 	"/>
	<ellipse class="st0" cx="208.9" cy="263.8" rx="27" ry="26"/>
	<rect x="202.5" y="52.4" class="st0" width="25.4" height="83.6"/>
	<polygon class="st1" points="46.5,266.6 72.9,266.6 81.1,240.2 89.2,266.6 115.6,266.6 94.3,282.9 102.4,309.2 81.1,292.9 
		59.7,309.2 67.9,282.9 	"/>
	<path class="st0" d="M400.1,252.5c11.1-31.2,54.6,0,0,40.1C345.5,252.5,389,221.3,400.1,252.5z"/>
	<polygon class="st0" points="360.4,178.5 373.6,152.2 408.3,152.2 421.4,178.5 408.3,204.8 373.6,204.8 	"/>
	<path class="st2" d="M187.3,184.7c0.2-15.9,13.2-28.8,29.2-28.7c15.8,0.1,28.5,12.8,28.6,28.6l-28.7,0.2c0.1-0.1,0.1-0.2,0-0.2
		c-0.1,0-0.3,0.1-0.4,0.2L187.3,184.7z"/>
</g>
</svg>
