<?xml version="1.0" encoding="utf-8"?>
<!-- Generator: Adobe Illustrator 21.0.0, SVG Export Plug-In . SVG Version: 6.00 Build 0)  -->
<svg version="1.1" id="Layer_1" xmlns="http://www.w3.org/2000/svg" xmlns:xlink="http://www.w3.org/1999/xlink" x="0px" y="0px"
	 viewBox="0 0 595.3 841.9" style="enable-background:new 0 0 595.3 841.9;" xml:space="preserve">
<g>
	<path d="M32.3,178.9V37.5H60l57.9,94.5V37.5h26.5v141.5h-28.7l-57-92.3v92.3H32.3z"/>
	<path d="M168.9,109.1c0-14.4,2.2-26.5,6.5-36.3c3.2-7.2,7.6-13.7,13.2-19.4c5.6-5.7,11.7-10,18.3-12.7c8.8-3.7,19-5.6,30.5-5.6
		c20.8,0,37.5,6.5,50,19.4c12.5,12.9,18.8,30.9,18.8,53.9c0,22.8-6.2,40.7-18.6,53.6c-12.4,12.9-29,19.3-49.8,19.3
		c-21,0-37.8-6.4-50.2-19.3C175.1,149.3,168.9,131.6,168.9,109.1z M198.3,108.1c0,16,3.7,28.2,11.1,36.4
		c7.4,8.3,16.8,12.4,28.2,12.4s20.7-4.1,28-12.3c7.3-8.2,11-20.5,11-36.9c0-16.2-3.6-28.3-10.7-36.3c-7.1-8-16.6-12-28.3-12
		s-21.3,4-28.5,12.1C201.9,79.7,198.3,91.8,198.3,108.1z"/>
	<path d="M328.4,178.9V37.5h45.8c17.4,0,28.7,0.7,34,2.1c8.1,2.1,14.9,6.7,20.4,13.8c5.5,7.1,8.2,16.3,8.2,27.6
		c0,8.7-1.6,16-4.7,21.9c-3.2,5.9-7.2,10.6-12,13.9c-4.9,3.4-9.8,5.6-14.8,6.7c-6.8,1.4-16.7,2-29.6,2H357v53.4H328.4z M357,61.4
		v40.1h15.6c11.3,0,18.8-0.7,22.6-2.2c3.8-1.5,6.8-3.8,8.9-6.9c2.2-3.2,3.2-6.8,3.2-11c0-5.1-1.5-9.4-4.5-12.7
		c-3-3.3-6.9-5.4-11.5-6.3c-3.4-0.6-10.3-1-20.6-1H357z"/>
	<path d="M460.3,178.9V37.5h104.9v23.9h-76.3v31.4h71v23.8h-71v38.5h79v23.8H460.3z"/>
</g>
<g>
	<path d="M-38,325.7v-23.8h61.6v56.4c-6,5.8-14.7,10.9-26,15.3c-11.4,4.4-22.9,6.6-34.5,6.6c-14.8,0-27.7-3.1-38.7-9.3
		c-11-6.2-19.3-15.1-24.8-26.6c-5.5-11.5-8.3-24.1-8.3-37.7c0-14.7,3.1-27.8,9.3-39.3c6.2-11.5,15.2-20.2,27.1-26.3
		c9.1-4.7,20.4-7,33.9-7c17.6,0,31.3,3.7,41.2,11.1c9.9,7.4,16.2,17.5,19.1,30.5l-28.4,5.3c-2-6.9-5.7-12.4-11.2-16.5
		c-5.5-4-12.4-6-20.6-6c-12.5,0-22.4,4-29.8,11.9c-7.4,7.9-11,19.7-11,35.2c0,16.8,3.7,29.4,11.2,37.8c7.5,8.4,17.2,12.6,29.3,12.6
		c6,0,12-1.2,18-3.5c6-2.3,11.2-5.2,15.5-8.5v-18H-38z"/>
	<path d="M177.5,377.8h-31.1l-12.4-32.1H77.5l-11.7,32.1H35.5l55.1-141.5h30.2L177.5,377.8z M124.9,321.8l-19.5-52.5l-19.1,52.5
		H124.9z"/>
	<path d="M209.8,377.8V260.2h-42v-23.9h112.4v23.9h-41.9v117.5H209.8z"/>
	<path d="M298.8,377.8V236.3h28.6V292h56v-55.7h28.6v141.5h-28.6v-61.9h-56v61.9H298.8z"/>
	<path d="M441.4,377.8V236.3h104.9v23.9H470v31.4h71v23.8h-71v38.5h79v23.8H441.4z"/>
	<path d="M573.3,377.8V236.3h60.1c15.1,0,26.1,1.3,33,3.8c6.9,2.5,12.3,7.1,16.5,13.6c4.1,6.5,6.2,13.9,6.2,22.3
		c0,10.6-3.1,19.4-9.4,26.3c-6.2,6.9-15.6,11.3-28,13.1c6.2,3.6,11.3,7.6,15.3,11.9c4,4.3,9.4,12,16.3,23l17.3,27.6h-34.2L645.7,347
		c-7.3-11-12.4-17.9-15.1-20.8c-2.7-2.9-5.6-4.8-8.6-5.9c-3-1.1-7.8-1.6-14.4-1.6h-5.8v59.1H573.3z M601.9,296.1H623
		c13.7,0,22.3-0.6,25.7-1.7c3.4-1.2,6.1-3.2,8-6c1.9-2.8,2.9-6.4,2.9-10.6c0-4.8-1.3-8.6-3.8-11.5c-2.5-2.9-6.1-4.8-10.8-5.5
		c-2.3-0.3-9.3-0.5-20.8-0.5h-22.3V296.1z"/>
	<path d="M140.3,614.9V497.4h-42v-23.9h112.4v23.9h-41.9v117.5H140.3z"/>
	<path d="M229.3,614.9V473.5h28.6v55.7h56v-55.7h28.6v141.5h-28.6v-61.9h-56v61.9H229.3z"/>
	<path d="M371.9,614.9V473.5h104.9v23.9h-76.3v31.4h71v23.8h-71v38.5h79v23.8H371.9z"/>
	<path d="M12.4,800.1l27.7,8.8c-4.2,15.4-11.3,26.9-21.2,34.4c-9.9,7.5-22.4,11.2-37.6,11.2c-18.8,0-34.2-6.4-46.3-19.3
		c-12.1-12.8-18.1-30.4-18.1-52.6c0-23.5,6.1-41.8,18.2-54.9c12.2-13,28.1-19.5,48-19.5c17.3,0,31.4,5.1,42.2,15.3
		c6.4,6,11.3,14.7,14.5,26.1l-28.3,6.8C9.7,749,6.2,743.2,0.9,739s-11.8-6.4-19.3-6.4c-10.5,0-19,3.8-25.5,11.3
		c-6.5,7.5-9.8,19.7-9.8,36.6c0,17.9,3.2,30.6,9.7,38.2c6.4,7.6,14.8,11.4,25.1,11.4c7.6,0,14.1-2.4,19.6-7.2
		C6.1,818,10,810.4,12.4,800.1z"/>
	<path d="M64.7,852.1V710.6h60.1c15.1,0,26.1,1.3,33,3.8c6.9,2.5,12.3,7.1,16.5,13.6c4.1,6.5,6.2,13.9,6.2,22.3
		c0,10.6-3.1,19.4-9.4,26.3c-6.2,6.9-15.6,11.3-28,13.1c6.2,3.6,11.3,7.6,15.3,11.9c4,4.3,9.4,12,16.3,23l17.3,27.6h-34.2L137,821.3
		c-7.3-11-12.4-17.9-15.1-20.8c-2.7-2.9-5.6-4.8-8.6-5.9c-3-1.1-7.8-1.6-14.4-1.6h-5.8v59.1H64.7z M93.2,770.5h21.1
		c13.7,0,22.3-0.6,25.7-1.7c3.4-1.2,6.1-3.2,8-6c1.9-2.8,2.9-6.4,2.9-10.6c0-4.8-1.3-8.6-3.8-11.5c-2.5-2.9-6.1-4.8-10.8-5.5
		c-2.3-0.3-9.3-0.5-20.8-0.5H93.2V770.5z"/>
	<path d="M201.5,782.2c0-14.4,2.2-26.5,6.5-36.3c3.2-7.2,7.6-13.7,13.2-19.4c5.6-5.7,11.7-10,18.3-12.7c8.8-3.7,19-5.6,30.5-5.6
		c20.8,0,37.5,6.5,50,19.4c12.5,12.9,18.8,30.9,18.8,53.9c0,22.8-6.2,40.7-18.6,53.6c-12.4,12.9-29,19.3-49.8,19.3
		c-21,0-37.8-6.4-50.2-19.3C207.7,822.4,201.5,804.8,201.5,782.2z M230.9,781.3c0,16,3.7,28.2,11.1,36.4
		c7.4,8.3,16.8,12.4,28.2,12.4s20.7-4.1,28-12.3c7.3-8.2,11-20.5,11-36.9c0-16.2-3.6-28.3-10.7-36.3c-7.1-8-16.6-12-28.3-12
		s-21.3,4-28.5,12.1C234.6,752.8,230.9,765,230.9,781.3z"/>
	<path d="M381.1,852.1l-33.8-141.5h29.2l21.3,97.2l25.9-97.2h34l24.8,98.8l21.7-98.8H533l-34.4,141.5h-30.3l-28.2-105.8l-28.1,105.8
		H381.1z"/>
	<path d="M547.5,710.6h52.2c11.8,0,20.8,0.9,26.9,2.7c8.3,2.4,15.4,6.8,21.3,13c5.9,6.2,10.4,13.9,13.5,22.9
		c3.1,9,4.6,20.2,4.6,33.4c0,11.6-1.4,21.7-4.3,30.1c-3.5,10.3-8.6,18.6-15.2,25c-5,4.8-11.6,8.6-20.1,11.3c-6.3,2-14.7,3-25.3,3
		h-53.8V710.6z M576.1,734.6v93.7h21.3c8,0,13.7-0.4,17.3-1.4c4.6-1.2,8.5-3.1,11.5-5.9c3.1-2.8,5.6-7.3,7.5-13.7
		c1.9-6.3,2.9-15,2.9-25.9c0-10.9-1-19.3-2.9-25.2c-1.9-5.9-4.6-10.4-8.1-13.7c-3.5-3.3-7.9-5.5-13.2-6.7c-4-0.9-11.8-1.4-23.5-1.4
		H576.1z"/>
</g>
<g>
	<path d="M-54.9,1046.8v-15.3c-3.7,5.5-8.6,9.8-14.7,12.9c-6.1,3.2-12.5,4.7-19.3,4.7c-6.9,0-13.1-1.5-18.5-4.5
		c-5.5-3-9.4-7.3-11.9-12.7c-2.4-5.5-3.7-13-3.7-22.7v-64.9h27.1v47.1c0,14.4,0.5,23.2,1.5,26.5c1,3.2,2.8,5.8,5.5,7.7
		c2.6,1.9,6,2.8,10,2.8c4.6,0,8.8-1.3,12.4-3.8c3.7-2.5,6.2-5.7,7.5-9.5c1.4-3.8,2-13,2-27.6v-43.2h27.1v102.5H-54.9z"/>
	<path d="M72.4,1046.8L40,944.3h26.3l19.2,67.2l17.7-67.2h26.2l17.1,67.2l19.6-67.2h26.7l-32.9,102.5h-26.1l-17.7-65.9l-17.4,65.9
		H72.4z"/>
	<path d="M200.7,994.1c0-9,2.2-17.7,6.7-26.2c4.4-8.4,10.7-14.9,18.9-19.3c8.1-4.4,17.2-6.7,27.3-6.7c15.5,0,28.2,5,38.1,15.1
		c9.9,10.1,14.9,22.8,14.9,38.2c0,15.5-5,28.4-15,38.6c-10,10.2-22.6,15.3-37.8,15.3c-9.4,0-18.4-2.1-26.9-6.4
		c-8.5-4.2-15-10.5-19.4-18.7S200.7,1005.9,200.7,994.1z M228.5,995.6c0,10.2,2.4,18,7.2,23.4s10.8,8.1,17.9,8.1
		c7.1,0,13-2.7,17.8-8.1c4.8-5.4,7.2-13.3,7.2-23.5c0-10-2.4-17.8-7.2-23.2c-4.8-5.4-10.7-8.1-17.8-8.1c-7.1,0-13,2.7-17.9,8.1
		S228.5,985.4,228.5,995.6z"/>
	<path d="M374.7,944.3V966h-18.5v41.3c0,8.4,0.2,13.2,0.5,14.6c0.4,1.4,1.2,2.5,2.4,3.4c1.3,0.9,2.8,1.4,4.6,1.4
		c2.5,0,6.1-0.9,10.9-2.6l2.3,21c-6.3,2.7-13.4,4.1-21.4,4.1c-4.9,0-9.3-0.8-13.2-2.5c-3.9-1.6-6.8-3.8-8.6-6.4s-3.1-6.1-3.8-10.6
		c-0.6-3.2-0.9-9.5-0.9-19.1V966h-12.4v-21.6H329V924l27.2-15.8v36.2H374.7z"/>
	<path d="M446.4,944.3h25v14c8.9-10.9,19.6-16.3,31.9-16.3c6.6,0,12.3,1.4,17.1,4.1s8.8,6.8,11.9,12.3c4.5-5.5,9.4-9.6,14.6-12.3
		c5.2-2.7,10.8-4.1,16.7-4.1c7.5,0,13.9,1.5,19.1,4.6c5.2,3.1,9.1,7.5,11.7,13.5c1.9,4.4,2.8,11.5,2.8,21.2v65.5h-27.1v-58.6
		c0-10.2-0.9-16.7-2.8-19.7c-2.5-3.9-6.4-5.8-11.6-5.8c-3.8,0-7.4,1.2-10.7,3.5c-3.3,2.3-5.8,5.7-7.2,10.2
		c-1.5,4.5-2.2,11.5-2.2,21.2v49.2h-27.1v-56.2c0-10-0.5-16.4-1.4-19.3s-2.5-5-4.5-6.5c-2-1.4-4.8-2.1-8.3-2.1
		c-4.2,0-7.9,1.1-11.3,3.4c-3.3,2.3-5.7,5.5-7.2,9.7c-1.4,4.2-2.2,11.3-2.2,21.1v49.8h-27.1V944.3z"/>
	<path d="M641.7,970.5c-7-3-12.1-7-15.3-12.2c-3.2-5.2-4.8-10.9-4.8-17c0-10.6,3.7-19.3,11-26.2c7.4-6.9,17.8-10.3,31.4-10.3
		c13.4,0,23.9,3.4,31.3,10.3c7.4,6.9,11.1,15.6,11.1,26.2c0,6.6-1.7,12.4-5.1,17.5c-3.4,5.1-8.2,9-14.4,11.7
		c7.8,3.2,13.8,7.8,17.9,13.8c4.1,6,6.1,13,6.1,20.9c0,13.1-4.2,23.7-12.5,31.8c-8.3,8.2-19.4,12.3-33.2,12.3
		c-12.9,0-23.6-3.4-32.1-10.1c-10.1-8-15.2-18.9-15.2-32.8c0-7.7,1.9-14.7,5.7-21.1C627.5,978.9,633.5,974,641.7,970.5z
		 M644.8,1003.8c0,7.5,1.9,13.3,5.7,17.5c3.8,4.2,8.6,6.3,14.3,6.3c5.6,0,10.2-2,13.9-6c3.7-4,5.5-9.8,5.5-17.4c0-6.6-1.9-12-5.6-16
		c-3.7-4-8.5-6-14.2-6c-6.6,0-11.6,2.3-14.8,6.9C646.4,993.5,644.8,998.4,644.8,1003.8z M647.3,943.2c0,5.4,1.5,9.6,4.6,12.6
		c3.1,3,7.1,4.5,12.2,4.5c5.1,0,9.3-1.5,12.4-4.6c3.1-3.1,4.6-7.3,4.6-12.7c0-5.1-1.5-9.2-4.6-12.2c-3.1-3.1-7.1-4.6-12.1-4.6
		c-5.2,0-9.4,1.5-12.4,4.6C648.8,934,647.3,938.1,647.3,943.2z"/>
</g>
</svg>
